<svg id="Layer_2" data-name="Layer 2" xmlns="http://www.w3.org/2000/svg" viewBox="0 0 720 769.59"><defs><style>.cls-1{fill:#020202;}</style></defs><title>logo</title><path class="cls-1" d="M662.82,241.69c-72.73-52.08-145.63-58.2-146.62-57.05-23.43,27.09,5.25,34.14,6.73,60.84a62.85,62.85,0,0,1-1.59,17.79c-7.09-1.18-15.49-2.49-24.38-3.66-5.56-.73-22.78-.28-46.75.89,5-19.55,9.84-58,12.08-71.94,3-18.72,14.72-43.17,17.54-50.07s-16.31,17.16-25.12,42.29c-8.08,23.06-15.88,52-19.68,80.51q-7.06.39-14.63.83c4.53-18.67,7.45-71.38,9-89.2,1.83-21.3,12.06-50.3,14.45-58.41s-15.31,21.57-22.57,50.89c-7,28.27-13.28,63.72-14.95,97.56l-12.11.75c2.29-30.63,1.72-90.8,2-112.65.36-28.92,8.63-70,10.47-81.42s-13.9,32.3-19.16,73.17c-4.62,35.95-8.23,79.77-8.32,121.86l-2.5.16c1.3-25.6-9.61-118.51-12.57-148.91-3.33-34.15-.38-84,0-97.75s-9.65,40.43-9.65,89.51c0,39.53,1.69,86.69,6,132.48-8.29-29.37-19.5-64.59-24.07-80-8.19-27.6-12.45-69.38-14.06-80.81s-3.68,35.28,3.38,75.85a1009.16,1009.16,0,0,0,25.84,111.31l-20.9,1.42c-7.22-23.58-18-53.51-22.21-66.22-7.12-21.48-9.84-54.32-11-63.29s-4.94,28,.59,59.8A637.52,637.52,0,0,0,314.59,269l-3.75.26c-12.52-20.19-30-45.41-37.1-56.21-11.92-18.23-22.3-48.39-25.55-56.5s1.86,27.78,14.69,56.14A590.61,590.61,0,0,0,293,270.54c-44.23,3.11-85.68,6.12-112.55,7.92-10.57-21.66-31.89-57-39.54-70.5-10.76-19-19.21-49.84-22-58.17s.12,27.85,11.13,57.05a584.54,584.54,0,0,0,33.25,72.73l-1.08.06-4.67.25c-11.63-20.73-36-55.69-44.68-68.95-11.93-18.22-22.3-48.39-25.56-56.5s1.87,27.78,14.69,56.14a589.93,589.93,0,0,0,29.63,57c-12-11.69-25-23.49-31-29.36-13.22-12.78-26.26-36.38-30.21-42.61s4.77,23.75,19.94,45.14a414.71,414.71,0,0,0,32.43,40.15c-4.15.05-8.33.09-12.51.12-9.48-7.54-37.52-19.33-46.91-23.86-11.54-5.56-23.39-20-26.94-23.67s5,17.64,18.49,29.53c6.94,6.1,18,20.4,27.05,26.13-38.95.13-74.47-7.38-75.18-1.64-.53,4.26,34.78,9.83,72.21,16.95-5.82,4.92-16,11.51-19,14-10,8.19-27.67,12.51-32.37,14.13s17.07,3.6,33.33-3.49a191.26,191.26,0,0,0,33.4-18.88q6,1,12,2c-6.26,12.22-12.34,25.17-15.48,31.34C84,357.16,68,371.5,63.94,375.77s18.37-6.55,31.9-22.7a274,274,0,0,0,26.76-38.25l9.28,1.38c-11.44,21-23.86,45.89-29.67,56.85C91.28,393.71,69.15,418.79,63.4,426s23.68-15.63,43.17-42.2a660,660,0,0,0,42.15-65.26c1.6.21,3.19.42,4.76.61-7.33,18.65-15.63,44.76-19.36,55.34-6.07,17.16-21.56,37.89-25.46,43.85s18.75-12.8,31.54-34.8A392.73,392.73,0,0,0,169.49,321c15,1.56,27.2,2.31,34.33,1.84,25-1.66,107.48-9.89,204.23-17.24-6.53,17.6-13.25,38.64-16.51,47.86-6.06,17.16-21.56,37.89-25.46,43.84s18.76-12.79,31.54-34.79a395.52,395.52,0,0,0,27.7-58.19l4.93-.36c-2,20.24-2.77,49.69-3.45,61.44-1,18.29-10.13,42.91-12.2,49.81s14.39-18,20.52-43a402.55,402.55,0,0,0,10.74-69.33l1.05-.07c.35,20.72,8.13,67.86,10.34,84.42,2.77,20.76-1,50.84-1.58,59.14s10.3-24.17,11.1-53.86c.72-26.9-.54-59.71-5.36-90.7l2.25-.15c1.85,19.3,18,73.74,22.85,92.16,5.72,21.64,6.32,54.18,6.92,63.1s6.73-27.28,3.26-58.95c-3.2-29.2-9.31-64.58-18.8-97.24q15.6-1,31.28-1.92a97.65,97.65,0,0,0-4.05,19.35c-3,29.45-5.56,58.5,11.08,73s8.59-4.32,65.7-3.37,129-42.46,133.53-46.2S735.55,293.76,662.82,241.69ZM574.08,326c-23.21,0-42-19.91-42-44.46s18.81-44.45,42-44.45,42,19.9,42,44.45S597.28,326,574.08,326Z"/></svg>