<svg id="Layer_1" data-name="Layer 1" xmlns="http://www.w3.org/2000/svg" viewBox="0 0 1959 1082.75"><defs><style>.cls-1{fill:none;stroke:#000;stroke-miterlimit:10;stroke-width:0.25px;}</style></defs><title>background</title><line class="cls-1" y1="0.13" x2="1959" y2="0.13"/><line class="cls-1" y1="2.63" x2="1959" y2="2.63"/><line class="cls-1" y1="5.13" x2="1959" y2="5.13"/><line class="cls-1" y1="7.63" x2="1959" y2="7.63"/><line class="cls-1" y1="10.13" x2="1959" y2="10.13"/><line class="cls-1" y1="12.63" x2="1959" y2="12.63"/><line class="cls-1" y1="15.13" x2="1959" y2="15.13"/><line class="cls-1" y1="17.63" x2="1959" y2="17.63"/><line class="cls-1" y1="20.13" x2="1959" y2="20.13"/><line class="cls-1" y1="22.63" x2="1959" y2="22.63"/><line class="cls-1" y1="25.13" x2="1959" y2="25.13"/><line class="cls-1" y1="27.63" x2="1959" y2="27.63"/><line class="cls-1" y1="30.13" x2="1959" y2="30.13"/><line class="cls-1" y1="32.63" x2="1959" y2="32.63"/><line class="cls-1" y1="35.13" x2="1959" y2="35.13"/><line class="cls-1" y1="37.63" x2="1959" y2="37.63"/><line class="cls-1" y1="40.13" x2="1959" y2="40.13"/><line class="cls-1" y1="42.63" x2="1959" y2="42.63"/><line class="cls-1" y1="45.13" x2="1959" y2="45.13"/><line class="cls-1" y1="47.63" x2="1959" y2="47.63"/><line class="cls-1" y1="50.13" x2="1959" y2="50.13"/><line class="cls-1" y1="52.63" x2="1959" y2="52.63"/><line class="cls-1" y1="55.13" x2="1959" y2="55.13"/><line class="cls-1" y1="57.63" x2="1959" y2="57.63"/><line class="cls-1" y1="60.13" x2="1959" y2="60.13"/><line class="cls-1" y1="62.63" x2="1959" y2="62.63"/><line class="cls-1" y1="65.13" x2="1959" y2="65.13"/><line class="cls-1" y1="67.63" x2="1959" y2="67.63"/><line class="cls-1" y1="70.13" x2="1959" y2="70.13"/><line class="cls-1" y1="72.63" x2="1959" y2="72.63"/><line class="cls-1" y1="75.13" x2="1959" y2="75.13"/><line class="cls-1" y1="77.63" x2="1959" y2="77.63"/><line class="cls-1" y1="80.13" x2="1959" y2="80.13"/><line class="cls-1" y1="82.63" x2="1959" y2="82.63"/><line class="cls-1" y1="85.13" x2="1959" y2="85.13"/><line class="cls-1" y1="87.63" x2="1959" y2="87.63"/><line class="cls-1" y1="90.13" x2="1959" y2="90.13"/><line class="cls-1" y1="92.63" x2="1959" y2="92.63"/><line class="cls-1" y1="95.13" x2="1959" y2="95.13"/><line class="cls-1" y1="97.63" x2="1959" y2="97.63"/><line class="cls-1" y1="100.13" x2="1959" y2="100.13"/><line class="cls-1" y1="102.63" x2="1959" y2="102.63"/><line class="cls-1" y1="105.13" x2="1959" y2="105.13"/><line class="cls-1" y1="107.63" x2="1959" y2="107.63"/><line class="cls-1" y1="110.13" x2="1959" y2="110.13"/><line class="cls-1" y1="112.63" x2="1959" y2="112.63"/><line class="cls-1" y1="115.13" x2="1959" y2="115.13"/><line class="cls-1" y1="117.63" x2="1959" y2="117.63"/><line class="cls-1" y1="120.13" x2="1959" y2="120.13"/><line class="cls-1" y1="122.63" x2="1959" y2="122.63"/><line class="cls-1" y1="125.13" x2="1959" y2="125.13"/><line class="cls-1" y1="127.63" x2="1959" y2="127.63"/><line class="cls-1" y1="130.13" x2="1959" y2="130.13"/><line class="cls-1" y1="132.63" x2="1959" y2="132.63"/><line class="cls-1" y1="135.13" x2="1959" y2="135.13"/><line class="cls-1" y1="137.63" x2="1959" y2="137.63"/><line class="cls-1" y1="140.13" x2="1959" y2="140.13"/><line class="cls-1" y1="142.63" x2="1959" y2="142.63"/><line class="cls-1" y1="145.13" x2="1959" y2="145.13"/><line class="cls-1" y1="147.63" x2="1959" y2="147.63"/><line class="cls-1" y1="150.13" x2="1959" y2="150.13"/><line class="cls-1" y1="152.63" x2="1959" y2="152.63"/><line class="cls-1" y1="155.13" x2="1959" y2="155.13"/><line class="cls-1" y1="157.63" x2="1959" y2="157.63"/><line class="cls-1" y1="160.13" x2="1959" y2="160.13"/><line class="cls-1" y1="162.63" x2="1959" y2="162.63"/><line class="cls-1" y1="165.13" x2="1959" y2="165.13"/><line class="cls-1" y1="167.63" x2="1959" y2="167.63"/><line class="cls-1" y1="170.13" x2="1959" y2="170.13"/><line class="cls-1" y1="172.63" x2="1959" y2="172.63"/><line class="cls-1" y1="175.13" x2="1959" y2="175.13"/><line class="cls-1" y1="177.63" x2="1959" y2="177.63"/><line class="cls-1" y1="180.13" x2="1959" y2="180.13"/><line class="cls-1" y1="182.63" x2="1959" y2="182.63"/><line class="cls-1" y1="185.13" x2="1959" y2="185.13"/><line class="cls-1" y1="187.63" x2="1959" y2="187.63"/><line class="cls-1" y1="190.13" x2="1959" y2="190.13"/><line class="cls-1" y1="192.63" x2="1959" y2="192.63"/><line class="cls-1" y1="195.13" x2="1959" y2="195.13"/><line class="cls-1" y1="197.63" x2="1959" y2="197.63"/><line class="cls-1" y1="200.13" x2="1959" y2="200.13"/><line class="cls-1" y1="202.63" x2="1959" y2="202.63"/><line class="cls-1" y1="205.13" x2="1959" y2="205.13"/><line class="cls-1" y1="207.63" x2="1959" y2="207.63"/><line class="cls-1" y1="210.13" x2="1959" y2="210.13"/><line class="cls-1" y1="212.63" x2="1959" y2="212.63"/><line class="cls-1" y1="215.13" x2="1959" y2="215.13"/><line class="cls-1" y1="217.63" x2="1959" y2="217.63"/><line class="cls-1" y1="220.13" x2="1959" y2="220.13"/><line class="cls-1" y1="222.63" x2="1959" y2="222.63"/><line class="cls-1" y1="225.13" x2="1959" y2="225.13"/><line class="cls-1" y1="227.63" x2="1959" y2="227.63"/><line class="cls-1" y1="230.13" x2="1959" y2="230.13"/><line class="cls-1" y1="232.63" x2="1959" y2="232.63"/><line class="cls-1" y1="235.13" x2="1959" y2="235.13"/><line class="cls-1" y1="237.63" x2="1959" y2="237.63"/><line class="cls-1" y1="240.13" x2="1959" y2="240.13"/><line class="cls-1" y1="242.63" x2="1959" y2="242.63"/><line class="cls-1" y1="245.13" x2="1959" y2="245.13"/><line class="cls-1" y1="247.63" x2="1959" y2="247.63"/><line class="cls-1" y1="250.13" x2="1959" y2="250.13"/><line class="cls-1" y1="252.63" x2="1959" y2="252.63"/><line class="cls-1" y1="255.13" x2="1959" y2="255.13"/><line class="cls-1" y1="257.63" x2="1959" y2="257.63"/><line class="cls-1" y1="260.13" x2="1959" y2="260.13"/><line class="cls-1" y1="262.63" x2="1959" y2="262.63"/><line class="cls-1" y1="265.13" x2="1959" y2="265.13"/><line class="cls-1" y1="267.63" x2="1959" y2="267.63"/><line class="cls-1" y1="270.13" x2="1959" y2="270.13"/><line class="cls-1" y1="272.63" x2="1959" y2="272.63"/><line class="cls-1" y1="275.13" x2="1959" y2="275.13"/><line class="cls-1" y1="277.63" x2="1959" y2="277.63"/><line class="cls-1" y1="280.13" x2="1959" y2="280.13"/><line class="cls-1" y1="282.63" x2="1959" y2="282.63"/><line class="cls-1" y1="285.13" x2="1959" y2="285.13"/><line class="cls-1" y1="287.63" x2="1959" y2="287.63"/><line class="cls-1" y1="290.13" x2="1959" y2="290.13"/><line class="cls-1" y1="292.63" x2="1959" y2="292.63"/><line class="cls-1" y1="295.13" x2="1959" y2="295.13"/><line class="cls-1" y1="297.63" x2="1959" y2="297.63"/><line class="cls-1" y1="300.13" x2="1959" y2="300.13"/><line class="cls-1" y1="302.63" x2="1959" y2="302.63"/><line class="cls-1" y1="305.13" x2="1959" y2="305.13"/><line class="cls-1" y1="307.63" x2="1959" y2="307.63"/><line class="cls-1" y1="310.13" x2="1959" y2="310.13"/><line class="cls-1" y1="312.63" x2="1959" y2="312.63"/><line class="cls-1" y1="315.13" x2="1959" y2="315.13"/><line class="cls-1" y1="317.63" x2="1959" y2="317.63"/><line class="cls-1" y1="320.13" x2="1959" y2="320.13"/><line class="cls-1" y1="322.63" x2="1959" y2="322.63"/><line class="cls-1" y1="325.13" x2="1959" y2="325.13"/><line class="cls-1" y1="327.63" x2="1959" y2="327.63"/><line class="cls-1" y1="330.13" x2="1959" y2="330.13"/><line class="cls-1" y1="332.63" x2="1959" y2="332.63"/><line class="cls-1" y1="335.13" x2="1959" y2="335.13"/><line class="cls-1" y1="337.63" x2="1959" y2="337.63"/><line class="cls-1" y1="340.13" x2="1959" y2="340.13"/><line class="cls-1" y1="342.63" x2="1959" y2="342.63"/><line class="cls-1" y1="345.13" x2="1959" y2="345.13"/><line class="cls-1" y1="347.63" x2="1959" y2="347.63"/><line class="cls-1" y1="350.13" x2="1959" y2="350.13"/><line class="cls-1" y1="352.63" x2="1959" y2="352.63"/><line class="cls-1" y1="355.13" x2="1959" y2="355.13"/><line class="cls-1" y1="357.63" x2="1959" y2="357.63"/><line class="cls-1" y1="360.13" x2="1959" y2="360.13"/><line class="cls-1" y1="362.63" x2="1959" y2="362.63"/><line class="cls-1" y1="365.13" x2="1959" y2="365.13"/><line class="cls-1" y1="367.63" x2="1959" y2="367.63"/><line class="cls-1" y1="370.13" x2="1959" y2="370.13"/><line class="cls-1" y1="372.63" x2="1959" y2="372.63"/><line class="cls-1" y1="375.13" x2="1959" y2="375.13"/><line class="cls-1" y1="377.63" x2="1959" y2="377.63"/><line class="cls-1" y1="380.13" x2="1959" y2="380.13"/><line class="cls-1" y1="382.63" x2="1959" y2="382.63"/><line class="cls-1" y1="385.13" x2="1959" y2="385.13"/><line class="cls-1" y1="387.63" x2="1959" y2="387.63"/><line class="cls-1" y1="390.13" x2="1959" y2="390.13"/><line class="cls-1" y1="392.63" x2="1959" y2="392.63"/><line class="cls-1" y1="395.13" x2="1959" y2="395.13"/><line class="cls-1" y1="397.63" x2="1959" y2="397.63"/><line class="cls-1" y1="400.13" x2="1959" y2="400.13"/><line class="cls-1" y1="402.63" x2="1959" y2="402.63"/><line class="cls-1" y1="405.13" x2="1959" y2="405.13"/><line class="cls-1" y1="407.63" x2="1959" y2="407.63"/><line class="cls-1" y1="410.13" x2="1959" y2="410.13"/><line class="cls-1" y1="412.63" x2="1959" y2="412.63"/><line class="cls-1" y1="415.13" x2="1959" y2="415.13"/><line class="cls-1" y1="417.63" x2="1959" y2="417.63"/><line class="cls-1" y1="420.13" x2="1959" y2="420.13"/><line class="cls-1" y1="422.63" x2="1959" y2="422.63"/><line class="cls-1" y1="425.13" x2="1959" y2="425.13"/><line class="cls-1" y1="427.63" x2="1959" y2="427.63"/><line class="cls-1" y1="430.13" x2="1959" y2="430.13"/><line class="cls-1" y1="432.63" x2="1959" y2="432.63"/><line class="cls-1" y1="435.13" x2="1959" y2="435.13"/><line class="cls-1" y1="437.63" x2="1959" y2="437.63"/><line class="cls-1" y1="440.13" x2="1959" y2="440.13"/><line class="cls-1" y1="442.63" x2="1959" y2="442.63"/><line class="cls-1" y1="445.13" x2="1959" y2="445.13"/><line class="cls-1" y1="447.63" x2="1959" y2="447.63"/><line class="cls-1" y1="450.13" x2="1959" y2="450.13"/><line class="cls-1" y1="452.63" x2="1959" y2="452.63"/><line class="cls-1" y1="455.13" x2="1959" y2="455.13"/><line class="cls-1" y1="457.63" x2="1959" y2="457.63"/><line class="cls-1" y1="460.13" x2="1959" y2="460.13"/><line class="cls-1" y1="462.63" x2="1959" y2="462.63"/><line class="cls-1" y1="465.13" x2="1959" y2="465.13"/><line class="cls-1" y1="467.63" x2="1959" y2="467.63"/><line class="cls-1" y1="470.13" x2="1959" y2="470.13"/><line class="cls-1" y1="472.63" x2="1959" y2="472.63"/><line class="cls-1" y1="475.13" x2="1959" y2="475.13"/><line class="cls-1" y1="477.63" x2="1959" y2="477.63"/><line class="cls-1" y1="480.13" x2="1959" y2="480.13"/><line class="cls-1" y1="482.63" x2="1959" y2="482.63"/><line class="cls-1" y1="485.13" x2="1959" y2="485.13"/><line class="cls-1" y1="487.63" x2="1959" y2="487.63"/><line class="cls-1" y1="490.13" x2="1959" y2="490.13"/><line class="cls-1" y1="492.63" x2="1959" y2="492.63"/><line class="cls-1" y1="495.13" x2="1959" y2="495.13"/><line class="cls-1" y1="497.63" x2="1959" y2="497.63"/><line class="cls-1" y1="500.13" x2="1959" y2="500.13"/><line class="cls-1" y1="502.63" x2="1959" y2="502.63"/><line class="cls-1" y1="505.13" x2="1959" y2="505.13"/><line class="cls-1" y1="507.63" x2="1959" y2="507.63"/><line class="cls-1" y1="510.13" x2="1959" y2="510.13"/><line class="cls-1" y1="512.63" x2="1959" y2="512.63"/><line class="cls-1" y1="515.13" x2="1959" y2="515.13"/><line class="cls-1" y1="517.63" x2="1959" y2="517.63"/><line class="cls-1" y1="520.13" x2="1959" y2="520.13"/><line class="cls-1" y1="522.63" x2="1959" y2="522.63"/><line class="cls-1" y1="525.13" x2="1959" y2="525.13"/><line class="cls-1" y1="527.63" x2="1959" y2="527.63"/><line class="cls-1" y1="530.13" x2="1959" y2="530.13"/><line class="cls-1" y1="532.63" x2="1959" y2="532.63"/><line class="cls-1" y1="535.13" x2="1959" y2="535.13"/><line class="cls-1" y1="537.63" x2="1959" y2="537.63"/><line class="cls-1" y1="540.13" x2="1959" y2="540.13"/><line class="cls-1" y1="542.63" x2="1959" y2="542.63"/><line class="cls-1" y1="545.13" x2="1959" y2="545.13"/><line class="cls-1" y1="547.63" x2="1959" y2="547.63"/><line class="cls-1" y1="550.13" x2="1959" y2="550.13"/><line class="cls-1" y1="552.63" x2="1959" y2="552.63"/><line class="cls-1" y1="555.13" x2="1959" y2="555.13"/><line class="cls-1" y1="557.63" x2="1959" y2="557.63"/><line class="cls-1" y1="560.13" x2="1959" y2="560.13"/><line class="cls-1" y1="562.63" x2="1959" y2="562.63"/><line class="cls-1" y1="565.13" x2="1959" y2="565.13"/><line class="cls-1" y1="567.63" x2="1959" y2="567.63"/><line class="cls-1" y1="570.13" x2="1959" y2="570.13"/><line class="cls-1" y1="572.63" x2="1959" y2="572.63"/><line class="cls-1" y1="575.13" x2="1959" y2="575.13"/><line class="cls-1" y1="577.63" x2="1959" y2="577.63"/><line class="cls-1" y1="580.13" x2="1959" y2="580.13"/><line class="cls-1" y1="582.63" x2="1959" y2="582.63"/><line class="cls-1" y1="585.13" x2="1959" y2="585.13"/><line class="cls-1" y1="587.63" x2="1959" y2="587.63"/><line class="cls-1" y1="590.13" x2="1959" y2="590.13"/><line class="cls-1" y1="592.63" x2="1959" y2="592.63"/><line class="cls-1" y1="595.13" x2="1959" y2="595.13"/><line class="cls-1" y1="597.63" x2="1959" y2="597.63"/><line class="cls-1" y1="600.13" x2="1959" y2="600.13"/><line class="cls-1" y1="602.63" x2="1959" y2="602.63"/><line class="cls-1" y1="605.13" x2="1959" y2="605.13"/><line class="cls-1" y1="607.63" x2="1959" y2="607.63"/><line class="cls-1" y1="610.13" x2="1959" y2="610.13"/><line class="cls-1" y1="612.63" x2="1959" y2="612.63"/><line class="cls-1" y1="615.13" x2="1959" y2="615.13"/><line class="cls-1" y1="617.63" x2="1959" y2="617.63"/><line class="cls-1" y1="620.13" x2="1959" y2="620.13"/><line class="cls-1" y1="622.63" x2="1959" y2="622.63"/><line class="cls-1" y1="625.13" x2="1959" y2="625.13"/><line class="cls-1" y1="627.63" x2="1959" y2="627.63"/><line class="cls-1" y1="630.13" x2="1959" y2="630.13"/><line class="cls-1" y1="632.63" x2="1959" y2="632.63"/><line class="cls-1" y1="635.13" x2="1959" y2="635.13"/><line class="cls-1" y1="637.63" x2="1959" y2="637.63"/><line class="cls-1" y1="640.13" x2="1959" y2="640.13"/><line class="cls-1" y1="642.63" x2="1959" y2="642.63"/><line class="cls-1" y1="645.13" x2="1959" y2="645.13"/><line class="cls-1" y1="647.63" x2="1959" y2="647.63"/><line class="cls-1" y1="650.13" x2="1959" y2="650.13"/><line class="cls-1" y1="652.63" x2="1959" y2="652.63"/><line class="cls-1" y1="655.13" x2="1959" y2="655.13"/><line class="cls-1" y1="657.63" x2="1959" y2="657.63"/><line class="cls-1" y1="660.13" x2="1959" y2="660.13"/><line class="cls-1" y1="662.63" x2="1959" y2="662.63"/><line class="cls-1" y1="665.13" x2="1959" y2="665.13"/><line class="cls-1" y1="667.63" x2="1959" y2="667.63"/><line class="cls-1" y1="670.13" x2="1959" y2="670.13"/><line class="cls-1" y1="672.63" x2="1959" y2="672.63"/><line class="cls-1" y1="675.13" x2="1959" y2="675.13"/><line class="cls-1" y1="677.63" x2="1959" y2="677.63"/><line class="cls-1" y1="680.13" x2="1959" y2="680.13"/><line class="cls-1" y1="682.63" x2="1959" y2="682.63"/><line class="cls-1" y1="685.13" x2="1959" y2="685.13"/><line class="cls-1" y1="687.63" x2="1959" y2="687.63"/><line class="cls-1" y1="690.13" x2="1959" y2="690.13"/><line class="cls-1" y1="692.63" x2="1959" y2="692.63"/><line class="cls-1" y1="695.13" x2="1959" y2="695.13"/><line class="cls-1" y1="697.63" x2="1959" y2="697.63"/><line class="cls-1" y1="700.13" x2="1959" y2="700.13"/><line class="cls-1" y1="702.63" x2="1959" y2="702.63"/><line class="cls-1" y1="705.13" x2="1959" y2="705.13"/><line class="cls-1" y1="707.63" x2="1959" y2="707.63"/><line class="cls-1" y1="710.13" x2="1959" y2="710.13"/><line class="cls-1" y1="712.63" x2="1959" y2="712.63"/><line class="cls-1" y1="715.13" x2="1959" y2="715.13"/><line class="cls-1" y1="717.63" x2="1959" y2="717.63"/><line class="cls-1" y1="720.13" x2="1959" y2="720.13"/><line class="cls-1" y1="722.63" x2="1959" y2="722.63"/><line class="cls-1" y1="725.13" x2="1959" y2="725.13"/><line class="cls-1" y1="727.63" x2="1959" y2="727.63"/><line class="cls-1" y1="730.13" x2="1959" y2="730.13"/><line class="cls-1" y1="732.63" x2="1959" y2="732.63"/><line class="cls-1" y1="735.13" x2="1959" y2="735.13"/><line class="cls-1" y1="737.63" x2="1959" y2="737.63"/><line class="cls-1" y1="740.13" x2="1959" y2="740.13"/><line class="cls-1" y1="742.63" x2="1959" y2="742.63"/><line class="cls-1" y1="745.13" x2="1959" y2="745.13"/><line class="cls-1" y1="747.63" x2="1959" y2="747.63"/><line class="cls-1" y1="750.13" x2="1959" y2="750.13"/><line class="cls-1" y1="752.63" x2="1959" y2="752.63"/><line class="cls-1" y1="755.13" x2="1959" y2="755.13"/><line class="cls-1" y1="757.63" x2="1959" y2="757.63"/><line class="cls-1" y1="760.13" x2="1959" y2="760.13"/><line class="cls-1" y1="762.63" x2="1959" y2="762.63"/><line class="cls-1" y1="765.13" x2="1959" y2="765.13"/><line class="cls-1" y1="767.63" x2="1959" y2="767.63"/><line class="cls-1" y1="770.13" x2="1959" y2="770.13"/><line class="cls-1" y1="772.63" x2="1959" y2="772.63"/><line class="cls-1" y1="775.13" x2="1959" y2="775.13"/><line class="cls-1" y1="777.63" x2="1959" y2="777.63"/><line class="cls-1" y1="780.13" x2="1959" y2="780.13"/><line class="cls-1" y1="782.63" x2="1959" y2="782.63"/><line class="cls-1" y1="785.13" x2="1959" y2="785.13"/><line class="cls-1" y1="787.63" x2="1959" y2="787.63"/><line class="cls-1" y1="790.13" x2="1959" y2="790.13"/><line class="cls-1" y1="792.63" x2="1959" y2="792.63"/><line class="cls-1" y1="795.13" x2="1959" y2="795.13"/><line class="cls-1" y1="797.63" x2="1959" y2="797.63"/><line class="cls-1" y1="800.13" x2="1959" y2="800.13"/><line class="cls-1" y1="802.63" x2="1959" y2="802.63"/><line class="cls-1" y1="805.13" x2="1959" y2="805.13"/><line class="cls-1" y1="807.63" x2="1959" y2="807.63"/><line class="cls-1" y1="810.13" x2="1959" y2="810.13"/><line class="cls-1" y1="812.63" x2="1959" y2="812.63"/><line class="cls-1" y1="815.13" x2="1959" y2="815.13"/><line class="cls-1" y1="817.63" x2="1959" y2="817.63"/><line class="cls-1" y1="820.13" x2="1959" y2="820.13"/><line class="cls-1" y1="822.63" x2="1959" y2="822.63"/><line class="cls-1" y1="825.13" x2="1959" y2="825.13"/><line class="cls-1" y1="827.63" x2="1959" y2="827.63"/><line class="cls-1" y1="830.13" x2="1959" y2="830.13"/><line class="cls-1" y1="832.63" x2="1959" y2="832.63"/><line class="cls-1" y1="835.13" x2="1959" y2="835.13"/><line class="cls-1" y1="837.63" x2="1959" y2="837.63"/><line class="cls-1" y1="840.13" x2="1959" y2="840.13"/><line class="cls-1" y1="842.63" x2="1959" y2="842.63"/><line class="cls-1" y1="845.13" x2="1959" y2="845.13"/><line class="cls-1" y1="847.63" x2="1959" y2="847.63"/><line class="cls-1" y1="850.13" x2="1959" y2="850.13"/><line class="cls-1" y1="852.63" x2="1959" y2="852.63"/><line class="cls-1" y1="855.13" x2="1959" y2="855.13"/><line class="cls-1" y1="857.63" x2="1959" y2="857.63"/><line class="cls-1" y1="860.13" x2="1959" y2="860.13"/><line class="cls-1" y1="862.63" x2="1959" y2="862.63"/><line class="cls-1" y1="865.13" x2="1959" y2="865.13"/><line class="cls-1" y1="867.63" x2="1959" y2="867.63"/><line class="cls-1" y1="870.13" x2="1959" y2="870.13"/><line class="cls-1" y1="872.63" x2="1959" y2="872.63"/><line class="cls-1" y1="875.13" x2="1959" y2="875.13"/><line class="cls-1" y1="877.63" x2="1959" y2="877.63"/><line class="cls-1" y1="880.13" x2="1959" y2="880.13"/><line class="cls-1" y1="882.63" x2="1959" y2="882.63"/><line class="cls-1" y1="885.13" x2="1959" y2="885.13"/><line class="cls-1" y1="887.63" x2="1959" y2="887.63"/><line class="cls-1" y1="890.13" x2="1959" y2="890.13"/><line class="cls-1" y1="892.63" x2="1959" y2="892.63"/><line class="cls-1" y1="895.13" x2="1959" y2="895.13"/><line class="cls-1" y1="897.63" x2="1959" y2="897.63"/><line class="cls-1" y1="900.13" x2="1959" y2="900.13"/><line class="cls-1" y1="902.63" x2="1959" y2="902.63"/><line class="cls-1" y1="905.13" x2="1959" y2="905.13"/><line class="cls-1" y1="907.63" x2="1959" y2="907.63"/><line class="cls-1" y1="910.13" x2="1959" y2="910.13"/><line class="cls-1" y1="912.63" x2="1959" y2="912.63"/><line class="cls-1" y1="915.13" x2="1959" y2="915.13"/><line class="cls-1" y1="917.63" x2="1959" y2="917.63"/><line class="cls-1" y1="920.13" x2="1959" y2="920.13"/><line class="cls-1" y1="922.63" x2="1959" y2="922.63"/><line class="cls-1" y1="925.13" x2="1959" y2="925.13"/><line class="cls-1" y1="927.63" x2="1959" y2="927.63"/><line class="cls-1" y1="930.13" x2="1959" y2="930.13"/><line class="cls-1" y1="932.63" x2="1959" y2="932.63"/><line class="cls-1" y1="935.13" x2="1959" y2="935.13"/><line class="cls-1" y1="937.63" x2="1959" y2="937.63"/><line class="cls-1" y1="940.13" x2="1959" y2="940.13"/><line class="cls-1" y1="942.63" x2="1959" y2="942.63"/><line class="cls-1" y1="945.13" x2="1959" y2="945.13"/><line class="cls-1" y1="947.63" x2="1959" y2="947.63"/><line class="cls-1" y1="950.13" x2="1959" y2="950.13"/><line class="cls-1" y1="952.63" x2="1959" y2="952.63"/><line class="cls-1" y1="955.13" x2="1959" y2="955.13"/><line class="cls-1" y1="957.63" x2="1959" y2="957.63"/><line class="cls-1" y1="960.13" x2="1959" y2="960.13"/><line class="cls-1" y1="962.63" x2="1959" y2="962.63"/><line class="cls-1" y1="965.13" x2="1959" y2="965.13"/><line class="cls-1" y1="967.63" x2="1959" y2="967.63"/><line class="cls-1" y1="970.13" x2="1959" y2="970.13"/><line class="cls-1" y1="972.63" x2="1959" y2="972.63"/><line class="cls-1" y1="975.13" x2="1959" y2="975.13"/><line class="cls-1" y1="977.63" x2="1959" y2="977.63"/><line class="cls-1" y1="980.13" x2="1959" y2="980.13"/><line class="cls-1" y1="982.63" x2="1959" y2="982.63"/><line class="cls-1" y1="985.13" x2="1959" y2="985.13"/><line class="cls-1" y1="987.63" x2="1959" y2="987.63"/><line class="cls-1" y1="990.13" x2="1959" y2="990.13"/><line class="cls-1" y1="992.63" x2="1959" y2="992.63"/><line class="cls-1" y1="995.13" x2="1959" y2="995.13"/><line class="cls-1" y1="997.63" x2="1959" y2="997.63"/><line class="cls-1" y1="1000.13" x2="1959" y2="1000.13"/><line class="cls-1" y1="1002.63" x2="1959" y2="1002.63"/><line class="cls-1" y1="1005.13" x2="1959" y2="1005.13"/><line class="cls-1" y1="1007.63" x2="1959" y2="1007.63"/><line class="cls-1" y1="1010.13" x2="1959" y2="1010.13"/><line class="cls-1" y1="1012.63" x2="1959" y2="1012.63"/><line class="cls-1" y1="1015.13" x2="1959" y2="1015.13"/><line class="cls-1" y1="1017.63" x2="1959" y2="1017.63"/><line class="cls-1" y1="1020.13" x2="1959" y2="1020.13"/><line class="cls-1" y1="1022.63" x2="1959" y2="1022.63"/><line class="cls-1" y1="1025.13" x2="1959" y2="1025.13"/><line class="cls-1" y1="1027.63" x2="1959" y2="1027.63"/><line class="cls-1" y1="1030.13" x2="1959" y2="1030.13"/><line class="cls-1" y1="1032.63" x2="1959" y2="1032.63"/><line class="cls-1" y1="1035.13" x2="1959" y2="1035.13"/><line class="cls-1" y1="1037.63" x2="1959" y2="1037.63"/><line class="cls-1" y1="1040.13" x2="1959" y2="1040.13"/><line class="cls-1" y1="1042.63" x2="1959" y2="1042.63"/><line class="cls-1" y1="1045.13" x2="1959" y2="1045.13"/><line class="cls-1" y1="1047.63" x2="1959" y2="1047.63"/><line class="cls-1" y1="1050.13" x2="1959" y2="1050.13"/><line class="cls-1" y1="1052.63" x2="1959" y2="1052.63"/><line class="cls-1" y1="1055.13" x2="1959" y2="1055.13"/><line class="cls-1" y1="1057.63" x2="1959" y2="1057.63"/><line class="cls-1" y1="1060.13" x2="1959" y2="1060.13"/><line class="cls-1" y1="1062.63" x2="1959" y2="1062.63"/><line class="cls-1" y1="1065.13" x2="1959" y2="1065.13"/><line class="cls-1" y1="1067.63" x2="1959" y2="1067.63"/><line class="cls-1" y1="1070.13" x2="1959" y2="1070.13"/><line class="cls-1" y1="1072.63" x2="1959" y2="1072.63"/><line class="cls-1" y1="1075.13" x2="1959" y2="1075.13"/><line class="cls-1" y1="1077.63" x2="1959" y2="1077.63"/><line class="cls-1" y1="1080.13" x2="1959" y2="1080.13"/><line class="cls-1" y1="1082.63" x2="1959" y2="1082.63"/></svg>