<svg xmlns="http://www.w3.org/2000/svg" viewBox="0 0 313.52 339.27"><defs><style>.cls-1{fill:#434343;}</style></defs><title>Asset 3</title><g id="Layer_2" data-name="Layer 2"><g id="Layer_1-2" data-name="Layer 1"><path class="cls-1" d="M310.46,225.59,202.58,170.52,309.9,115.25a6.58,6.58,0,0,0,3-7.11A77.09,77.09,0,0,0,288.8,65.8a6.56,6.56,0,0,0-7.64-1.07l-98,63,5.05-117.49a6.58,6.58,0,0,0-4.67-6.15,77.09,77.09,0,0,0-48.71-.31,6.59,6.59,0,0,0-4.75,6.09L135,130.23,34.5,63.88a6.72,6.72,0,0,0-8.11,1.37,93.73,93.73,0,0,0-24.06,41.1A6.68,6.68,0,0,0,5.1,114L110.42,170,3.13,222.87a6.69,6.69,0,0,0-2.86,7.7A93.85,93.85,0,0,0,23.83,272a6.67,6.67,0,0,0,8,1.44l100.88-62.86L128,329.72a6.71,6.71,0,0,0,5.24,6.34,94,94,0,0,0,47.63.29,6.68,6.68,0,0,0,5.26-6.24l-5-118.12,100,63.75a6.57,6.57,0,0,0,7.65-1,77.16,77.16,0,0,0,24.63-42A6.56,6.56,0,0,0,310.46,225.59Z"/></g></g></svg>