<svg xmlns="http://www.w3.org/2000/svg" viewBox="0 0 217.71 230.4"><defs><style>.cls-1{fill:none;stroke:#000;stroke-miterlimit:10;stroke-width:3px;}</style></defs><title>Asset 3</title><g id="Layer_2" data-name="Layer 2"><g id="Layer_2-2" data-name="Layer 2"><rect class="cls-1" x="1.5" y="1.5" width="214.71" height="227.4" rx="15.6"/><path d="M109.94,65.32c1,1.91,2,3.83,3,5.74.41.8,1.67,3.23,4.32,3.23a4.47,4.47,0,0,0,2-.5l-.05.74q-.46,7.06-.94,14.11a6.08,6.08,0,0,0,0,.86v.11c.11,2.38,1.06,3.92,2.81,4.58a4,4,0,0,0,1.41.26,4.33,4.33,0,0,0,3.82-2.52l3.21-5.65a3.81,3.81,0,0,0,3.38,1.9,7.46,7.46,0,0,0,3-.79c.87-.38,1.74-.75,2.64-1.11-.21,1.63-.43,3.26-.64,4.89l-.42,3.21c-.34,2.6.62,4.41,2.85,5.38.32.13.64.28.95.42l.54.25.6,0c6.84.25,24.55,3.86,36.4,11.45,7.86,5,15.09,13.78,15.16,18.35a1.87,1.87,0,0,1-.87,1.82c-8.79,6-16.35,7.4-23.66,8.7l-1.75.32c-2.14.39-7.85.67-15.68.77l-4.42.06.28.66c-2.25.58-3,2.29-3.43,3.94l-2.32,9-.9,3.49a3.52,3.52,0,0,0-1-.15,4,4,0,0,0-2.75,1.2l-1.84,1.71v-.05c-.1-.81-.19-1.66-.31-2.51-.34-2.36-1.57-3.31-2.66-3.69l.16-.4.54-1.35c.43-1.07.87-2.14,1.29-3.22a4.56,4.56,0,0,0-.37-4.56,3.73,3.73,0,0,0-3-1.61,4.13,4.13,0,0,0-2.5.89c-1.52,1.13-3,2.31-4.32,3.32L123,149.67a4.45,4.45,0,0,0-3.65-3.42l-3.84-.67,2.87-4.24-5.21-.35a80.7,80.7,0,0,1-9.51-1c-8-1.63-31.22-6.59-40.83-8.64l-2-.44-1.13,1.73a28.23,28.23,0,0,0-1.91,3.81c-.26.58-.61,1.37-.75,1.59l-5.09,8.12L50,149.25a3.62,3.62,0,0,0-2.63-1.1,4.74,4.74,0,0,0-1.55.29l-3.42,1.2,0-.33c.06-.41.13-.82.2-1.23.15-.9.31-1.83.44-2.78.36-2.65-.73-4.08-2-4.85l.58-.67,1-1.14c.77-.9,1.55-1.8,2.32-2.71A4.73,4.73,0,0,0,46,131.29a3.94,3.94,0,0,0-3.84-2.88,5,5,0,0,0-1,.11c-1.94.42-3.88.88-5.54,1.28l-2.82.69a5,5,0,0,0-2-5.8c-1.3-.92-2.61-1.82-3.91-2.72l-.9-.62,4.63-3.2a5,5,0,0,0,2.21-5.94l8,1.93a4.35,4.35,0,0,0,.95.11h.34a4,4,0,0,0,4-2.88A4.72,4.72,0,0,0,45,106.81l-4-4.6c2.17-1.34,2.34-3.25,1.85-6-.19-1-.36-2.07-.53-3.13l1.5.53,1.94.69a4.74,4.74,0,0,0,1.55.29,3.59,3.59,0,0,0,2.62-1.1c1,1.5,1.89,3,2.84,4.52q2.16,3.47,4.34,6.92a37.36,37.36,0,0,0,5.52,6.53L64,112.56l1.66-.68c5.09-2.11,12.62-5.1,19.57-7.4l2.75-.91-.82-2.78c-.75-2.58-1.51-5.15-2.26-7.72l.47.07,1.16.17c.88.13,1.78.26,2.72.35a4.59,4.59,0,0,0,.62,0A4.12,4.12,0,0,0,94,90.85L95,92c.94,1.11,1.88,2.23,2.83,3.33a4.66,4.66,0,0,0,3.46,1.8,3.94,3.94,0,0,0,2.26-.72c.93-.64,2.41-2.18,1.77-5.28s-1.28-5.92-1.85-8.45l-1.56-6.84a5,5,0,0,0,1.35.2c1.21,0,3.39-.5,4.48-3.83q1.05-3.24,2.08-6.48c0-.15.1-.3.14-.45M161.2,132a11.86,11.86,0,0,0,10.62-6.64,11.8,11.8,0,0,0-10.61-17A11.88,11.88,0,0,0,150.6,115a11.8,11.8,0,0,0,10.6,17M109.28,57.6c-.47,1.44-.87,2.68-1.27,3.92-1.05,3.27-2.08,6.54-3.14,9.8-.4,1.21-.89,1.76-1.63,1.76a2.51,2.51,0,0,1-1-.26c-.46-.2-.91-.44-1.36-.67L97.7,70.54a6.19,6.19,0,0,0,0,.67c.92,4.06,1.86,8.11,2.77,12.17.63,2.79,1.25,5.59,1.84,8.4a2,2,0,0,1-.53,2.2.94.94,0,0,1-.56.19,1.73,1.73,0,0,1-1.18-.76c-1.34-1.55-2.66-3.13-4-4.7L92.1,84c-.25,1.74-.47,3.31-.7,4.87-.2,1.34-.55,1.84-1.5,1.84l-.33,0c-1.26-.12-2.51-.34-3.76-.52l-5-.68c.06.32.09.52.14.7q1.68,5.73,3.37,11.45c-6.83,2.26-14.18,5.16-19.78,7.48a35.82,35.82,0,0,1-4.88-5.82Q56,97.49,52.37,91.67l-2.88-4.55c-.43,1.19-.84,2.27-1.22,3.36-.26.75-.51,1.07-1,1.07a1.57,1.57,0,0,1-.55-.12l-6.18-2.18-2-.67c.46,2.83.86,5.49,1.32,8.12.44,2.47.32,2.79-1.59,3.47-.73.25-1.44.55-2.25.86l.58.7q3,3.51,6,7a1.75,1.75,0,0,1,.46,1.74,1,1,0,0,1-1.09.76h-.19a2.71,2.71,0,0,1-.4,0L32,108.92l-4-1c.17.47.27.8.4,1.12.44,1.11.9,2.22,1.33,3.34.62,1.65.42,2.41-.82,3.27l-7.22,5-.92.68L23.13,123c2,1.37,4,2.73,5.94,4.12,1,.71,1.22,1.53.74,2.9-.17.47-.36.92-.54,1.37-.41,1.06-.83,2.11-1.27,3.24h.42l7.92-1.94c1.82-.44,3.63-.87,5.46-1.26a1.57,1.57,0,0,1,.37-.05,1,1,0,0,1,1,.78,1.8,1.8,0,0,1-.5,1.8c-1.09,1.29-2.2,2.56-3.3,3.84L36,141.68c1.09.4,2.06.76,3,1.13s1.18.83,1,2.09-.42,2.62-.63,3.93c-.28,1.71-.55,3.43-.84,5.24.21,0,.33-.06.45-.1l7.71-2.7a1.66,1.66,0,0,1,.56-.12c.44,0,.69.32,1,1.06.39,1.1.79,2.18,1.21,3.34.23-.33.4-.55.55-.79l9.5-15.15c.58-.93,1.61-3.79,2.63-5.35,10.88,2.33,33,7.05,40.85,8.65a87.44,87.44,0,0,0,9.91,1.07L111,146.8c-.19.27-.36.56-.61.94l2.39.43c2,.34,4,.68,6,1,1,.18,1.4.79,1.32,2.13,0,.46-.07.91-.11,1.37-.09,1-.18,2.11-.28,3.23a1.9,1.9,0,0,0,.35-.17l6.16-4.85c1.42-1.11,2.84-2.21,4.27-3.28a1.32,1.32,0,0,1,.71-.29.72.72,0,0,1,.6.36,1.71,1.71,0,0,1,0,1.71c-.6,1.53-1.22,3-1.83,4.55s-1.19,3-1.84,4.58l2.81-.28h.24c.68,0,1,.34,1.11,1.35.17,1.18.28,2.37.43,3.55.18,1.55.37,3.1.56,4.73.17-.12.27-.18.36-.26l5.81-5.4a1.16,1.16,0,0,1,.71-.4c.26,0,.49.19.78.57.59.77,1.19,1.51,1.83,2.31.11-.37.2-.62.27-.89q2.13-8.28,4.27-16.55c.39-1.5.74-1.82,2-1.89.92-.06,1.84-.15,2.84-.24l-.11-.28c7.59-.1,13.7-.37,16.18-.82,8.07-1.47,16.53-2.6,26.57-9.5,7-4.81-4.33-18.73-14.37-25.17-12.83-8.21-31.18-11.68-37.91-11.92l-1-.44c-1-.44-1.25-.93-1.08-2.24.44-3.32.87-6.63,1.3-10,.13-1,.25-2.06.39-3.23-2.6,1.06-5,2-7.44,3a5.08,5.08,0,0,1-1.76.54c-.79,0-1.12-.72-1.68-2.63-.33-1.1-.69-2.18-1.08-3.41l-.58,1q-2.92,5.16-5.86,10.32c-.31.54-.69,1-1.21,1a1,1,0,0,1-.36-.07c-.72-.27-.83-1.09-.86-1.91,0-.21,0-.42,0-.63q.51-7.56,1-15.12c.14-2.06.28-4.13.44-6.4-.43.32-.72.52-1,.76-1,.82-2,1.68-3,2.49a2.6,2.6,0,0,1-1.5.72c-.61,0-1.1-.52-1.66-1.61L110,59c-.22-.42-.45-.82-.75-1.37ZM161.2,129a8.8,8.8,0,1,1,7.92-4.95A8.79,8.79,0,0,1,161.2,129Z"/></g></g></svg>