<svg xmlns="http://www.w3.org/2000/svg" viewBox="0 0 182.98 121.13"><defs><style>.cls-1{fill:none;stroke:#000;stroke-miterlimit:10;stroke-width:5px;}</style></defs><title>Asset 5</title><g id="Layer_2" data-name="Layer 2"><g id="Layer_2-2" data-name="Layer 2"><path class="cls-1" d="M163.93,58.05C151.1,49.83,132.75,46.37,126,46.13l-1-.45c-1-.43-1.24-.93-1.07-2.24l1.29-9.94c.14-1,.25-2.06.4-3.23-2.6,1.06-5,2-7.45,3-2.26,1-2.57.83-3.44-2.08-.32-1.11-.69-2.19-1.08-3.42-.25.44-.42.71-.58,1-2,3.44-3.89,6.89-5.85,10.32-.38.66-.87,1.2-1.58.94s-.82-1.09-.86-1.92c0-.21,0-.42,0-.62l1-15.13c.14-2.06.28-4.12.43-6.39-.42.31-.72.52-1,.75-1,.83-2,1.69-3,2.49-1.47,1.18-2.2,1-3.16-.89L93.55,7.64c-.21-.41-.45-.81-.75-1.36-.46,1.44-.87,2.67-1.27,3.92-1,3.26-2.08,6.53-3.14,9.79-.55,1.69-1.29,2.1-2.63,1.51-.46-.21-.9-.45-1.35-.68l-3.19-1.61a5.57,5.57,0,0,0,.06.67C82.2,23.94,83.13,28,84,32.05c.63,2.79,1.26,5.59,1.84,8.4a2,2,0,0,1-.53,2.21c-.68.46-1.25,0-1.74-.58-1.34-1.55-2.66-3.12-4-4.69l-4-4.73c-.25,1.75-.47,3.31-.69,4.87s-.64,1.94-1.84,1.82-2.5-.34-3.76-.51l-5-.69c.07.33.09.52.15.7,1.11,3.82,2.24,7.64,3.36,11.46C61,52.56,53.67,55.46,48.06,57.78A35.81,35.81,0,0,1,43.18,52L35.89,40.34C35,38.85,34,37.36,33,35.8c-.43,1.19-.83,2.26-1.21,3.35s-.69,1.24-1.51,1l-6.17-2.17c-.64-.23-1.29-.44-2-.68.45,2.84.85,5.49,1.32,8.12.44,2.47.31,2.79-1.6,3.47-.72.26-1.44.55-2.24.86l.57.7q3,3.51,6.05,7a1.74,1.74,0,0,1,.46,1.74c-.23.75-.75.79-1.28.76a2.56,2.56,0,0,1-.39,0l-9.48-2.3-4-1c.17.47.28.8.4,1.12.44,1.12.91,2.22,1.33,3.35.63,1.64.43,2.4-.81,3.26l-7.22,5c-.28.19-.56.4-.93.68.87.61,1.62,1.14,2.38,1.66,2,1.37,4,2.73,5.93,4.12,1,.72,1.22,1.54.74,2.9-.17.47-.36.92-.54,1.38l-1.27,3.24a1.86,1.86,0,0,0,.43,0l7.91-1.94c1.82-.44,3.64-.87,5.46-1.26a1,1,0,0,1,1.35.74,1.81,1.81,0,0,1-.5,1.8C25.08,84,24,85.22,22.88,86.5s-2.16,2.5-3.31,3.85l3,1.13c.92.35,1.17.83,1,2.09s-.42,2.62-.63,3.93c-.28,1.72-.55,3.44-.84,5.24a2.51,2.51,0,0,0,.46-.1q3.86-1.33,7.71-2.7c.82-.28,1.15-.06,1.5.94s.8,2.19,1.22,3.34c.23-.32.4-.55.55-.79q4.74-7.58,9.49-15.15c.59-.93,1.61-3.79,2.63-5.35,10.88,2.33,33,7,40.85,8.65a87,87,0,0,0,9.91,1.08c-.64.93-1.27,1.87-1.91,2.81l-.61.94,2.4.43c2,.35,4,.68,6,1,1,.19,1.4.79,1.33,2.13,0,.46-.08.92-.12,1.37-.09,1.06-.18,2.11-.28,3.24a2.91,2.91,0,0,0,.36-.18c2-1.61,4.1-3.24,6.16-4.84,1.41-1.11,2.83-2.21,4.27-3.28.42-.32.91-.49,1.31.07a1.74,1.74,0,0,1,0,1.71c-.6,1.52-1.21,3-1.82,4.55s-1.2,3-1.84,4.57l2.8-.28c.86-.08,1.19.22,1.35,1.35s.29,2.36.43,3.55c.18,1.55.37,3.1.57,4.73.16-.12.27-.19.36-.27l5.8-5.4c.62-.57,1-.52,1.49.18s1.2,1.51,1.83,2.3c.11-.36.2-.62.27-.88q2.15-8.28,4.27-16.56c.39-1.5.74-1.81,2-1.89.92,0,1.83-.15,2.84-.23l-.12-.29c7.59-.09,13.71-.36,16.19-.82,8.06-1.47,16.53-2.59,26.56-9.49C185.32,78.4,174,64.48,163.93,58.05Zm-13.8,16a8.8,8.8,0,1,1-4.07-11.75A8.8,8.8,0,0,1,150.13,74.06Z"/></g></g></svg>