<svg xmlns="http://www.w3.org/2000/svg" viewBox="0 0 219.71 232.4"><defs><style>.cls-1{fill:none;stroke:#000;stroke-miterlimit:10;stroke-width:5px;}</style></defs><title>Asset 4</title><g id="Layer_2" data-name="Layer 2"><g id="Layer_2-2" data-name="Layer 2"><rect class="cls-1" x="2.5" y="2.5" width="214.71" height="227.4" rx="15.6"/><path class="cls-1" d="M181.41,110.37c-12.83-8.21-31.18-11.68-37.91-11.92l-1-.44c-1-.44-1.25-.93-1.08-2.24.44-3.32.87-6.63,1.3-10,.13-1,.25-2.06.39-3.23-2.6,1.06-5,2-7.44,3-2.26,1-2.58.83-3.44-2.09-.33-1.1-.69-2.18-1.08-3.41l-.58,1q-2.92,5.16-5.86,10.32c-.38.66-.86,1.2-1.57.93s-.83-1.09-.86-1.91c0-.21,0-.42,0-.63q.51-7.56,1-15.12c.14-2.06.28-4.13.44-6.4-.43.32-.72.52-1,.76-1,.82-2,1.68-3,2.49-1.47,1.17-2.21,1-3.16-.89L111,60c-.22-.42-.45-.82-.75-1.37-.47,1.44-.87,2.68-1.27,3.92-1.05,3.27-2.08,6.54-3.14,9.8-.55,1.69-1.3,2.09-2.63,1.5-.46-.2-.91-.44-1.36-.67L98.7,71.54a6.19,6.19,0,0,0,0,.67c.92,4.06,1.86,8.11,2.77,12.17.63,2.79,1.25,5.59,1.84,8.4a2,2,0,0,1-.53,2.2c-.68.47-1.25,0-1.74-.57-1.34-1.55-2.66-3.13-4-4.7L93.1,85c-.25,1.74-.47,3.31-.7,4.87s-.64,1.93-1.83,1.82-2.51-.34-3.76-.52l-5-.68c.06.32.09.52.14.7q1.68,5.73,3.37,11.45c-6.83,2.26-14.18,5.16-19.78,7.48a35.82,35.82,0,0,1-4.88-5.82Q57,98.49,53.37,92.67l-2.88-4.55c-.43,1.19-.84,2.27-1.22,3.36s-.68,1.24-1.5,1l-6.18-2.18-2-.67c.46,2.83.86,5.49,1.32,8.12.44,2.47.32,2.79-1.59,3.47-.73.25-1.44.55-2.25.86l.58.7q3,3.51,6,7a1.75,1.75,0,0,1,.46,1.74c-.23.74-.75.78-1.28.76a2.71,2.71,0,0,1-.4,0L33,109.92l-4-1c.17.47.27.8.4,1.12.44,1.11.9,2.22,1.33,3.34.62,1.65.42,2.41-.82,3.27l-7.22,5-.92.68L24.13,124c2,1.37,4,2.73,5.94,4.12,1,.71,1.22,1.53.74,2.9-.17.47-.36.92-.54,1.37-.41,1.06-.83,2.11-1.27,3.24a1.89,1.89,0,0,0,.42,0l7.92-1.94c1.82-.44,3.63-.87,5.46-1.26a1,1,0,0,1,1.35.73,1.8,1.8,0,0,1-.5,1.8c-1.09,1.29-2.2,2.56-3.3,3.84L37,142.68c1.09.4,2.06.76,3,1.13s1.18.83,1,2.09-.42,2.62-.63,3.93c-.28,1.71-.55,3.43-.84,5.24.21,0,.33-.06.45-.1l7.71-2.7c.83-.29,1.16-.07,1.51.94s.79,2.18,1.21,3.34c.23-.33.4-.55.55-.79l9.5-15.15c.58-.93,1.61-3.79,2.63-5.35,10.88,2.33,33,7.05,40.85,8.65a87.44,87.44,0,0,0,9.91,1.07L112,147.8c-.19.27-.36.56-.61.94l2.39.43c2,.34,4,.68,6,1,1,.18,1.4.79,1.32,2.13,0,.46-.07.91-.11,1.37-.09,1-.18,2.11-.28,3.23a1.9,1.9,0,0,0,.35-.17l6.16-4.85c1.42-1.11,2.84-2.21,4.27-3.28.42-.31.91-.48,1.31.07a1.71,1.71,0,0,1,0,1.71c-.6,1.53-1.22,3-1.83,4.55s-1.19,3-1.84,4.58l2.81-.28c.86-.08,1.19.22,1.35,1.34s.28,2.37.43,3.55c.18,1.55.37,3.1.56,4.73.17-.12.27-.18.36-.26l5.81-5.4c.62-.58.95-.53,1.49.17s1.19,1.51,1.83,2.31c.11-.37.2-.62.27-.89q2.13-8.28,4.27-16.55c.39-1.5.74-1.82,2-1.89.92-.06,1.84-.15,2.84-.24l-.11-.28c7.59-.1,13.71-.37,16.18-.82,8.07-1.47,16.53-2.6,26.57-9.5C202.79,130.73,191.46,116.81,181.41,110.37Zm-13.8,16a8.8,8.8,0,1,1-4.07-11.75A8.79,8.79,0,0,1,167.61,126.39Z"/></g></g></svg>