<svg id="Layer_2" data-name="Layer 2" xmlns="http://www.w3.org/2000/svg" viewBox="0 0 720 1025"><defs><style>.cls-1{fill:none;stroke:#000;stroke-miterlimit:10;stroke-width:0.5px;}</style></defs><title>net</title><path class="cls-1" d="M0-10.08c21.17,0,21.17,20.16,42.35,20.16S63.52-10.08,84.7-10.08s21.18,20.16,42.35,20.16,21.18-20.16,42.35-20.16,21.18,20.16,42.35,20.16,21.18-20.16,42.35-20.16,21.18,20.16,42.35,20.16,21.18-20.16,42.36-20.16S360,10.08,381.16,10.08s21.18-20.16,42.35-20.16,21.18,20.16,42.35,20.16S487-10.08,508.21-10.08s21.18,20.16,42.36,20.16,21.18-20.16,42.35-20.16,21.18,20.16,42.36,20.16,21.18-20.16,42.36-20.16S698.82,10.08,720,10.08"/><path class="cls-1" d="M0,.94C21.17.94,21.17,21.1,42.35,21.1S63.52.94,84.7.94,105.88,21.1,127.05,21.1,148.23.94,169.4.94,190.58,21.1,211.75,21.1,232.93.94,254.1.94,275.28,21.1,296.45,21.1,317.63.94,338.81.94,360,21.1,381.16,21.1,402.34.94,423.51.94,444.69,21.1,465.86,21.1,487,.94,508.21.94,529.39,21.1,550.57,21.1,571.75.94,592.92.94,614.1,21.1,635.28,21.1,656.46.94,677.64.94,698.82,21.1,720,21.1"/><path class="cls-1" d="M0,12c21.17,0,21.17,20.16,42.35,20.16S63.52,12,84.7,12s21.18,20.16,42.35,20.16S148.23,12,169.4,12s21.18,20.16,42.35,20.16S232.93,12,254.1,12s21.18,20.16,42.35,20.16S317.63,12,338.81,12,360,32.12,381.16,32.12,402.34,12,423.51,12s21.18,20.16,42.35,20.16S487,12,508.21,12s21.18,20.16,42.36,20.16S571.75,12,592.92,12s21.18,20.16,42.36,20.16S656.46,12,677.64,12,698.82,32.12,720,32.12"/><path class="cls-1" d="M0,23c21.17,0,21.17,20.16,42.35,20.16S63.52,23,84.7,23s21.18,20.16,42.35,20.16S148.23,23,169.4,23s21.18,20.16,42.35,20.16S232.93,23,254.1,23s21.18,20.16,42.35,20.16S317.63,23,338.81,23,360,43.14,381.16,43.14,402.34,23,423.51,23s21.18,20.16,42.35,20.16S487,23,508.21,23s21.18,20.16,42.36,20.16S571.75,23,592.92,23s21.18,20.16,42.36,20.16S656.46,23,677.64,23,698.82,43.14,720,43.14"/><path class="cls-1" d="M0,34c21.17,0,21.17,20.16,42.35,20.16S63.52,34,84.7,34s21.18,20.16,42.35,20.16S148.23,34,169.4,34s21.18,20.16,42.35,20.16S232.93,34,254.1,34s21.18,20.16,42.35,20.16S317.63,34,338.81,34,360,54.17,381.16,54.17,402.34,34,423.51,34s21.18,20.16,42.35,20.16S487,34,508.21,34s21.18,20.16,42.36,20.16S571.75,34,592.92,34s21.18,20.16,42.36,20.16S656.46,34,677.64,34,698.82,54.17,720,54.17"/><path class="cls-1" d="M0,45c21.17,0,21.17,20.16,42.35,20.16S63.52,45,84.7,45s21.18,20.16,42.35,20.16S148.23,45,169.4,45s21.18,20.16,42.35,20.16S232.93,45,254.1,45s21.18,20.16,42.35,20.16S317.63,45,338.81,45,360,65.19,381.16,65.19,402.34,45,423.51,45s21.18,20.16,42.35,20.16S487,45,508.21,45s21.18,20.16,42.36,20.16S571.75,45,592.92,45s21.18,20.16,42.36,20.16S656.46,45,677.64,45,698.82,65.19,720,65.19"/><path class="cls-1" d="M0,56.05c21.17,0,21.17,20.16,42.35,20.16S63.52,56.05,84.7,56.05s21.18,20.16,42.35,20.16,21.18-20.16,42.35-20.16,21.18,20.16,42.35,20.16,21.18-20.16,42.35-20.16,21.18,20.16,42.35,20.16,21.18-20.16,42.36-20.16S360,76.21,381.16,76.21s21.18-20.16,42.35-20.16,21.18,20.16,42.35,20.16S487,56.05,508.21,56.05s21.18,20.16,42.36,20.16,21.18-20.16,42.35-20.16,21.18,20.16,42.36,20.16,21.18-20.16,42.36-20.16S698.82,76.21,720,76.21"/><path class="cls-1" d="M0,67.07c21.17,0,21.17,20.16,42.35,20.16S63.52,67.07,84.7,67.07s21.18,20.16,42.35,20.16,21.18-20.16,42.35-20.16,21.18,20.16,42.35,20.16,21.18-20.16,42.35-20.16,21.18,20.16,42.35,20.16,21.18-20.16,42.36-20.16S360,87.23,381.16,87.23s21.18-20.16,42.35-20.16,21.18,20.16,42.35,20.16S487,67.07,508.21,67.07s21.18,20.16,42.36,20.16,21.18-20.16,42.35-20.16,21.18,20.16,42.36,20.16,21.18-20.16,42.36-20.16S698.82,87.23,720,87.23"/><path class="cls-1" d="M0,78.09c21.17,0,21.17,20.16,42.35,20.16S63.52,78.09,84.7,78.09s21.18,20.16,42.35,20.16,21.18-20.16,42.35-20.16,21.18,20.16,42.35,20.16,21.18-20.16,42.35-20.16,21.18,20.16,42.35,20.16,21.18-20.16,42.36-20.16S360,98.25,381.16,98.25s21.18-20.16,42.35-20.16,21.18,20.16,42.35,20.16S487,78.09,508.21,78.09s21.18,20.16,42.36,20.16,21.18-20.16,42.35-20.16,21.18,20.16,42.36,20.16,21.18-20.16,42.36-20.16S698.82,98.25,720,98.25"/><path class="cls-1" d="M0,89.11c21.17,0,21.17,20.16,42.35,20.16S63.52,89.11,84.7,89.11s21.18,20.16,42.35,20.16,21.18-20.16,42.35-20.16,21.18,20.16,42.35,20.16,21.18-20.16,42.35-20.16,21.18,20.16,42.35,20.16,21.18-20.16,42.36-20.16,21.17,20.16,42.35,20.16,21.18-20.16,42.35-20.16,21.18,20.16,42.35,20.16S487,89.11,508.21,89.11s21.18,20.16,42.36,20.16,21.18-20.16,42.35-20.16,21.18,20.16,42.36,20.16,21.18-20.16,42.36-20.16,21.18,20.16,42.36,20.16"/><path class="cls-1" d="M0,100.14c21.17,0,21.17,20.16,42.35,20.16s21.17-20.16,42.35-20.16,21.18,20.16,42.35,20.16,21.18-20.16,42.35-20.16,21.18,20.16,42.35,20.16,21.18-20.16,42.35-20.16,21.18,20.16,42.35,20.16,21.18-20.16,42.36-20.16S360,120.3,381.16,120.3s21.18-20.16,42.35-20.16,21.18,20.16,42.35,20.16,21.18-20.16,42.35-20.16,21.18,20.16,42.36,20.16,21.18-20.16,42.35-20.16,21.18,20.16,42.36,20.16,21.18-20.16,42.36-20.16S698.82,120.3,720,120.3"/><path class="cls-1" d="M0,111.16c21.17,0,21.17,20.16,42.35,20.16s21.17-20.16,42.35-20.16,21.18,20.16,42.35,20.16,21.18-20.16,42.35-20.16,21.18,20.16,42.35,20.16,21.18-20.16,42.35-20.16,21.18,20.16,42.35,20.16,21.18-20.16,42.36-20.16,21.17,20.16,42.35,20.16,21.18-20.16,42.35-20.16,21.18,20.16,42.35,20.16,21.18-20.16,42.35-20.16,21.18,20.16,42.36,20.16,21.18-20.16,42.35-20.16,21.18,20.16,42.36,20.16,21.18-20.16,42.36-20.16,21.18,20.16,42.36,20.16"/><path class="cls-1" d="M0,122.18c21.17,0,21.17,20.16,42.35,20.16s21.17-20.16,42.35-20.16,21.18,20.16,42.35,20.16,21.18-20.16,42.35-20.16,21.18,20.16,42.35,20.16,21.18-20.16,42.35-20.16,21.18,20.16,42.35,20.16,21.18-20.16,42.36-20.16,21.17,20.16,42.35,20.16,21.18-20.16,42.35-20.16,21.18,20.16,42.35,20.16,21.18-20.16,42.35-20.16,21.18,20.16,42.36,20.16,21.18-20.16,42.35-20.16,21.18,20.16,42.36,20.16,21.18-20.16,42.36-20.16,21.18,20.16,42.36,20.16"/><path class="cls-1" d="M0,133.2c21.17,0,21.17,20.16,42.35,20.16S63.52,133.2,84.7,133.2s21.18,20.16,42.35,20.16,21.18-20.16,42.35-20.16,21.18,20.16,42.35,20.16,21.18-20.16,42.35-20.16,21.18,20.16,42.35,20.16,21.18-20.16,42.36-20.16,21.17,20.16,42.35,20.16,21.18-20.16,42.35-20.16,21.18,20.16,42.35,20.16S487,133.2,508.21,133.2s21.18,20.16,42.36,20.16,21.18-20.16,42.35-20.16,21.18,20.16,42.36,20.16,21.18-20.16,42.36-20.16,21.18,20.16,42.36,20.16"/><path class="cls-1" d="M0,144.22c21.17,0,21.17,20.16,42.35,20.16s21.17-20.16,42.35-20.16,21.18,20.16,42.35,20.16,21.18-20.16,42.35-20.16,21.18,20.16,42.35,20.16,21.18-20.16,42.35-20.16,21.18,20.16,42.35,20.16,21.18-20.16,42.36-20.16,21.17,20.16,42.35,20.16,21.18-20.16,42.35-20.16,21.18,20.16,42.35,20.16,21.18-20.16,42.35-20.16,21.18,20.16,42.36,20.16,21.18-20.16,42.35-20.16,21.18,20.16,42.36,20.16,21.18-20.16,42.36-20.16,21.18,20.16,42.36,20.16"/><path class="cls-1" d="M0,155.24c21.17,0,21.17,20.16,42.35,20.16s21.17-20.16,42.35-20.16,21.18,20.16,42.35,20.16,21.18-20.16,42.35-20.16,21.18,20.16,42.35,20.16,21.18-20.16,42.35-20.16,21.18,20.16,42.35,20.16,21.18-20.16,42.36-20.16S360,175.4,381.16,175.4s21.18-20.16,42.35-20.16,21.18,20.16,42.35,20.16,21.18-20.16,42.35-20.16,21.18,20.16,42.36,20.16,21.18-20.16,42.35-20.16,21.18,20.16,42.36,20.16,21.18-20.16,42.36-20.16S698.82,175.4,720,175.4"/><path class="cls-1" d="M0,166.26c21.17,0,21.17,20.16,42.35,20.16s21.17-20.16,42.35-20.16,21.18,20.16,42.35,20.16,21.18-20.16,42.35-20.16,21.18,20.16,42.35,20.16,21.18-20.16,42.35-20.16,21.18,20.16,42.35,20.16,21.18-20.16,42.36-20.16,21.17,20.16,42.35,20.16,21.18-20.16,42.35-20.16,21.18,20.16,42.35,20.16,21.18-20.16,42.35-20.16,21.18,20.16,42.36,20.16,21.18-20.16,42.35-20.16,21.18,20.16,42.36,20.16,21.18-20.16,42.36-20.16,21.18,20.16,42.36,20.16"/><path class="cls-1" d="M0,177.29c21.17,0,21.17,20.16,42.35,20.16s21.17-20.16,42.35-20.16,21.18,20.16,42.35,20.16,21.18-20.16,42.35-20.16,21.18,20.16,42.35,20.16,21.18-20.16,42.35-20.16,21.18,20.16,42.35,20.16,21.18-20.16,42.36-20.16,21.17,20.16,42.35,20.16,21.18-20.16,42.35-20.16,21.18,20.16,42.35,20.16,21.18-20.16,42.35-20.16,21.18,20.16,42.36,20.16,21.18-20.16,42.35-20.16,21.18,20.16,42.36,20.16,21.18-20.16,42.36-20.16,21.18,20.16,42.36,20.16"/><path class="cls-1" d="M0,188.31c21.17,0,21.17,20.16,42.35,20.16s21.17-20.16,42.35-20.16,21.18,20.16,42.35,20.16,21.18-20.16,42.35-20.16,21.18,20.16,42.35,20.16,21.18-20.16,42.35-20.16,21.18,20.16,42.35,20.16,21.18-20.16,42.36-20.16,21.17,20.16,42.35,20.16,21.18-20.16,42.35-20.16,21.18,20.16,42.35,20.16,21.18-20.16,42.35-20.16,21.18,20.16,42.36,20.16,21.18-20.16,42.35-20.16,21.18,20.16,42.36,20.16,21.18-20.16,42.36-20.16,21.18,20.16,42.36,20.16"/><path class="cls-1" d="M0,199.33c21.17,0,21.17,20.16,42.35,20.16s21.17-20.16,42.35-20.16,21.18,20.16,42.35,20.16,21.18-20.16,42.35-20.16,21.18,20.16,42.35,20.16,21.18-20.16,42.35-20.16,21.18,20.16,42.35,20.16,21.18-20.16,42.36-20.16,21.17,20.16,42.35,20.16,21.18-20.16,42.35-20.16,21.18,20.16,42.35,20.16,21.18-20.16,42.35-20.16,21.18,20.16,42.36,20.16,21.18-20.16,42.35-20.16,21.18,20.16,42.36,20.16,21.18-20.16,42.36-20.16,21.18,20.16,42.36,20.16"/><path class="cls-1" d="M0,210.35c21.17,0,21.17,20.16,42.35,20.16s21.17-20.16,42.35-20.16,21.18,20.16,42.35,20.16,21.18-20.16,42.35-20.16,21.18,20.16,42.35,20.16,21.18-20.16,42.35-20.16,21.18,20.16,42.35,20.16,21.18-20.16,42.36-20.16,21.17,20.16,42.35,20.16,21.18-20.16,42.35-20.16,21.18,20.16,42.35,20.16,21.18-20.16,42.35-20.16,21.18,20.16,42.36,20.16,21.18-20.16,42.35-20.16,21.18,20.16,42.36,20.16,21.18-20.16,42.36-20.16,21.18,20.16,42.36,20.16"/><path class="cls-1" d="M0,221.37c21.17,0,21.17,20.16,42.35,20.16s21.17-20.16,42.35-20.16,21.18,20.16,42.35,20.16,21.18-20.16,42.35-20.16,21.18,20.16,42.35,20.16,21.18-20.16,42.35-20.16,21.18,20.16,42.35,20.16,21.18-20.16,42.36-20.16,21.17,20.16,42.35,20.16,21.18-20.16,42.35-20.16,21.18,20.16,42.35,20.16,21.18-20.16,42.35-20.16,21.18,20.16,42.36,20.16,21.18-20.16,42.35-20.16,21.18,20.16,42.36,20.16,21.18-20.16,42.36-20.16,21.18,20.16,42.36,20.16"/><path class="cls-1" d="M0,232.39c21.17,0,21.17,20.16,42.35,20.16s21.17-20.16,42.35-20.16,21.18,20.16,42.35,20.16,21.18-20.16,42.35-20.16,21.18,20.16,42.35,20.16,21.18-20.16,42.35-20.16,21.18,20.16,42.35,20.16,21.18-20.16,42.36-20.16,21.17,20.16,42.35,20.16,21.18-20.16,42.35-20.16,21.18,20.16,42.35,20.16,21.18-20.16,42.35-20.16,21.18,20.16,42.36,20.16,21.18-20.16,42.35-20.16,21.18,20.16,42.36,20.16,21.18-20.16,42.36-20.16,21.18,20.16,42.36,20.16"/><path class="cls-1" d="M0,243.41c21.17,0,21.17,20.16,42.35,20.16s21.17-20.16,42.35-20.16,21.18,20.16,42.35,20.16,21.18-20.16,42.35-20.16,21.18,20.16,42.35,20.16,21.18-20.16,42.35-20.16,21.18,20.16,42.35,20.16,21.18-20.16,42.36-20.16,21.17,20.16,42.35,20.16,21.18-20.16,42.35-20.16,21.18,20.16,42.35,20.16,21.18-20.16,42.35-20.16,21.18,20.16,42.36,20.16,21.18-20.16,42.35-20.16,21.18,20.16,42.36,20.16,21.18-20.16,42.36-20.16,21.18,20.16,42.36,20.16"/><path class="cls-1" d="M0,254.44c21.17,0,21.17,20.16,42.35,20.16s21.17-20.16,42.35-20.16,21.18,20.16,42.35,20.16,21.18-20.16,42.35-20.16,21.18,20.16,42.35,20.16,21.18-20.16,42.35-20.16,21.18,20.16,42.35,20.16,21.18-20.16,42.36-20.16S360,274.6,381.16,274.6s21.18-20.16,42.35-20.16,21.18,20.16,42.35,20.16,21.18-20.16,42.35-20.16,21.18,20.16,42.36,20.16,21.18-20.16,42.35-20.16,21.18,20.16,42.36,20.16,21.18-20.16,42.36-20.16S698.82,274.6,720,274.6"/><path class="cls-1" d="M0,265.46c21.17,0,21.17,20.16,42.35,20.16s21.17-20.16,42.35-20.16,21.18,20.16,42.35,20.16,21.18-20.16,42.35-20.16,21.18,20.16,42.35,20.16,21.18-20.16,42.35-20.16,21.18,20.16,42.35,20.16,21.18-20.16,42.36-20.16,21.17,20.16,42.35,20.16,21.18-20.16,42.35-20.16,21.18,20.16,42.35,20.16,21.18-20.16,42.35-20.16,21.18,20.16,42.36,20.16,21.18-20.16,42.35-20.16,21.18,20.16,42.36,20.16,21.18-20.16,42.36-20.16,21.18,20.16,42.36,20.16"/><path class="cls-1" d="M0,276.48c21.17,0,21.17,20.16,42.35,20.16s21.17-20.16,42.35-20.16,21.18,20.16,42.35,20.16,21.18-20.16,42.35-20.16,21.18,20.16,42.35,20.16,21.18-20.16,42.35-20.16,21.18,20.16,42.35,20.16,21.18-20.16,42.36-20.16,21.17,20.16,42.35,20.16,21.18-20.16,42.35-20.16,21.18,20.16,42.35,20.16,21.18-20.16,42.35-20.16,21.18,20.16,42.36,20.16,21.18-20.16,42.35-20.16,21.18,20.16,42.36,20.16,21.18-20.16,42.36-20.16,21.18,20.16,42.36,20.16"/><path class="cls-1" d="M0,287.5c21.17,0,21.17,20.16,42.35,20.16S63.52,287.5,84.7,287.5s21.18,20.16,42.35,20.16,21.18-20.16,42.35-20.16,21.18,20.16,42.35,20.16,21.18-20.16,42.35-20.16,21.18,20.16,42.35,20.16,21.18-20.16,42.36-20.16,21.17,20.16,42.35,20.16,21.18-20.16,42.35-20.16,21.18,20.16,42.35,20.16S487,287.5,508.21,287.5s21.18,20.16,42.36,20.16,21.18-20.16,42.35-20.16,21.18,20.16,42.36,20.16,21.18-20.16,42.36-20.16,21.18,20.16,42.36,20.16"/><path class="cls-1" d="M0,298.52c21.17,0,21.17,20.16,42.35,20.16s21.17-20.16,42.35-20.16,21.18,20.16,42.35,20.16,21.18-20.16,42.35-20.16,21.18,20.16,42.35,20.16,21.18-20.16,42.35-20.16,21.18,20.16,42.35,20.16,21.18-20.16,42.36-20.16,21.17,20.16,42.35,20.16,21.18-20.16,42.35-20.16,21.18,20.16,42.35,20.16,21.18-20.16,42.35-20.16,21.18,20.16,42.36,20.16,21.18-20.16,42.35-20.16,21.18,20.16,42.36,20.16,21.18-20.16,42.36-20.16,21.18,20.16,42.36,20.16"/><path class="cls-1" d="M0,309.54c21.17,0,21.17,20.16,42.35,20.16s21.17-20.16,42.35-20.16,21.18,20.16,42.35,20.16,21.18-20.16,42.35-20.16,21.18,20.16,42.35,20.16,21.18-20.16,42.35-20.16,21.18,20.16,42.35,20.16,21.18-20.16,42.36-20.16S360,329.7,381.16,329.7s21.18-20.16,42.35-20.16,21.18,20.16,42.35,20.16,21.18-20.16,42.35-20.16,21.18,20.16,42.36,20.16,21.18-20.16,42.35-20.16,21.18,20.16,42.36,20.16,21.18-20.16,42.36-20.16S698.82,329.7,720,329.7"/><path class="cls-1" d="M0,320.57c21.17,0,21.17,20.16,42.35,20.16s21.17-20.16,42.35-20.16,21.18,20.16,42.35,20.16,21.18-20.16,42.35-20.16,21.18,20.16,42.35,20.16,21.18-20.16,42.35-20.16,21.18,20.16,42.35,20.16,21.18-20.16,42.36-20.16,21.17,20.16,42.35,20.16,21.18-20.16,42.35-20.16,21.18,20.16,42.35,20.16,21.18-20.16,42.35-20.16,21.18,20.16,42.36,20.16,21.18-20.16,42.35-20.16,21.18,20.16,42.36,20.16,21.18-20.16,42.36-20.16,21.18,20.16,42.36,20.16"/><path class="cls-1" d="M0,331.59c21.17,0,21.17,20.16,42.35,20.16s21.17-20.16,42.35-20.16,21.18,20.16,42.35,20.16,21.18-20.16,42.35-20.16,21.18,20.16,42.35,20.16,21.18-20.16,42.35-20.16,21.18,20.16,42.35,20.16,21.18-20.16,42.36-20.16,21.17,20.16,42.35,20.16,21.18-20.16,42.35-20.16,21.18,20.16,42.35,20.16,21.18-20.16,42.35-20.16,21.18,20.16,42.36,20.16,21.18-20.16,42.35-20.16,21.18,20.16,42.36,20.16,21.18-20.16,42.36-20.16,21.18,20.16,42.36,20.16"/><path class="cls-1" d="M0,342.61c21.17,0,21.17,20.16,42.35,20.16s21.17-20.16,42.35-20.16,21.18,20.16,42.35,20.16,21.18-20.16,42.35-20.16,21.18,20.16,42.35,20.16,21.18-20.16,42.35-20.16,21.18,20.16,42.35,20.16,21.18-20.16,42.36-20.16,21.17,20.16,42.35,20.16,21.18-20.16,42.35-20.16,21.18,20.16,42.35,20.16,21.18-20.16,42.35-20.16,21.18,20.16,42.36,20.16,21.18-20.16,42.35-20.16,21.18,20.16,42.36,20.16,21.18-20.16,42.36-20.16,21.18,20.16,42.36,20.16"/><path class="cls-1" d="M0,353.63c21.17,0,21.17,20.16,42.35,20.16s21.17-20.16,42.35-20.16,21.18,20.16,42.35,20.16,21.18-20.16,42.35-20.16,21.18,20.16,42.35,20.16,21.18-20.16,42.35-20.16,21.18,20.16,42.35,20.16,21.18-20.16,42.36-20.16,21.17,20.16,42.35,20.16,21.18-20.16,42.35-20.16,21.18,20.16,42.35,20.16,21.18-20.16,42.35-20.16,21.18,20.16,42.36,20.16,21.18-20.16,42.35-20.16,21.18,20.16,42.36,20.16,21.18-20.16,42.36-20.16,21.18,20.16,42.36,20.16"/><path class="cls-1" d="M0,364.65c21.17,0,21.17,20.16,42.35,20.16s21.17-20.16,42.35-20.16,21.18,20.16,42.35,20.16,21.18-20.16,42.35-20.16,21.18,20.16,42.35,20.16,21.18-20.16,42.35-20.16,21.18,20.16,42.35,20.16,21.18-20.16,42.36-20.16,21.17,20.16,42.35,20.16,21.18-20.16,42.35-20.16,21.18,20.16,42.35,20.16,21.18-20.16,42.35-20.16,21.18,20.16,42.36,20.16,21.18-20.16,42.35-20.16,21.18,20.16,42.36,20.16,21.18-20.16,42.36-20.16,21.18,20.16,42.36,20.16"/><path class="cls-1" d="M0,375.67c21.17,0,21.17,20.16,42.35,20.16s21.17-20.16,42.35-20.16,21.18,20.16,42.35,20.16,21.18-20.16,42.35-20.16,21.18,20.16,42.35,20.16,21.18-20.16,42.35-20.16,21.18,20.16,42.35,20.16,21.18-20.16,42.36-20.16,21.17,20.16,42.35,20.16,21.18-20.16,42.35-20.16,21.18,20.16,42.35,20.16,21.18-20.16,42.35-20.16,21.18,20.16,42.36,20.16,21.18-20.16,42.35-20.16,21.18,20.16,42.36,20.16,21.18-20.16,42.36-20.16,21.18,20.16,42.36,20.16"/><path class="cls-1" d="M0,386.69c21.17,0,21.17,20.16,42.35,20.16s21.17-20.16,42.35-20.16,21.18,20.16,42.35,20.16,21.18-20.16,42.35-20.16,21.18,20.16,42.35,20.16,21.18-20.16,42.35-20.16,21.18,20.16,42.35,20.16,21.18-20.16,42.36-20.16,21.17,20.16,42.35,20.16,21.18-20.16,42.35-20.16,21.18,20.16,42.35,20.16,21.18-20.16,42.35-20.16,21.18,20.16,42.36,20.16,21.18-20.16,42.35-20.16,21.18,20.16,42.36,20.16,21.18-20.16,42.36-20.16,21.18,20.16,42.36,20.16"/><path class="cls-1" d="M0,397.72c21.17,0,21.17,20.16,42.35,20.16s21.17-20.16,42.35-20.16,21.18,20.16,42.35,20.16,21.18-20.16,42.35-20.16,21.18,20.16,42.35,20.16,21.18-20.16,42.35-20.16,21.18,20.16,42.35,20.16,21.18-20.16,42.36-20.16,21.17,20.16,42.35,20.16,21.18-20.16,42.35-20.16,21.18,20.16,42.35,20.16,21.18-20.16,42.35-20.16,21.18,20.16,42.36,20.16,21.18-20.16,42.35-20.16,21.18,20.16,42.36,20.16,21.18-20.16,42.36-20.16,21.18,20.16,42.36,20.16"/><path class="cls-1" d="M0,408.74c21.17,0,21.17,20.16,42.35,20.16s21.17-20.16,42.35-20.16,21.18,20.16,42.35,20.16,21.18-20.16,42.35-20.16,21.18,20.16,42.35,20.16,21.18-20.16,42.35-20.16,21.18,20.16,42.35,20.16,21.18-20.16,42.36-20.16S360,428.9,381.16,428.9s21.18-20.16,42.35-20.16,21.18,20.16,42.35,20.16,21.18-20.16,42.35-20.16,21.18,20.16,42.36,20.16,21.18-20.16,42.35-20.16,21.18,20.16,42.36,20.16,21.18-20.16,42.36-20.16S698.82,428.9,720,428.9"/><path class="cls-1" d="M0,419.76c21.17,0,21.17,20.16,42.35,20.16s21.17-20.16,42.35-20.16,21.18,20.16,42.35,20.16,21.18-20.16,42.35-20.16,21.18,20.16,42.35,20.16,21.18-20.16,42.35-20.16,21.18,20.16,42.35,20.16,21.18-20.16,42.36-20.16,21.17,20.16,42.35,20.16,21.18-20.16,42.35-20.16,21.18,20.16,42.35,20.16,21.18-20.16,42.35-20.16,21.18,20.16,42.36,20.16,21.18-20.16,42.35-20.16,21.18,20.16,42.36,20.16,21.18-20.16,42.36-20.16,21.18,20.16,42.36,20.16"/><path class="cls-1" d="M0,430.78c21.17,0,21.17,20.16,42.35,20.16s21.17-20.16,42.35-20.16,21.18,20.16,42.35,20.16,21.18-20.16,42.35-20.16,21.18,20.16,42.35,20.16,21.18-20.16,42.35-20.16,21.18,20.16,42.35,20.16,21.18-20.16,42.36-20.16,21.17,20.16,42.35,20.16,21.18-20.16,42.35-20.16,21.18,20.16,42.35,20.16,21.18-20.16,42.35-20.16,21.18,20.16,42.36,20.16,21.18-20.16,42.35-20.16,21.18,20.16,42.36,20.16,21.18-20.16,42.36-20.16,21.18,20.16,42.36,20.16"/><path class="cls-1" d="M0,441.8C21.17,441.8,21.17,462,42.35,462S63.52,441.8,84.7,441.8,105.88,462,127.05,462s21.18-20.16,42.35-20.16S190.58,462,211.75,462s21.18-20.16,42.35-20.16S275.28,462,296.45,462s21.18-20.16,42.36-20.16S360,462,381.16,462s21.18-20.16,42.35-20.16S444.69,462,465.86,462,487,441.8,508.21,441.8,529.39,462,550.57,462s21.18-20.16,42.35-20.16S614.1,462,635.28,462s21.18-20.16,42.36-20.16S698.82,462,720,462"/><path class="cls-1" d="M0,452.82c21.17,0,21.17,20.16,42.35,20.16s21.17-20.16,42.35-20.16S105.88,473,127.05,473s21.18-20.16,42.35-20.16S190.58,473,211.75,473s21.18-20.16,42.35-20.16S275.28,473,296.45,473s21.18-20.16,42.36-20.16S360,473,381.16,473s21.18-20.16,42.35-20.16S444.69,473,465.86,473s21.18-20.16,42.35-20.16S529.39,473,550.57,473s21.18-20.16,42.35-20.16S614.1,473,635.28,473s21.18-20.16,42.36-20.16S698.82,473,720,473"/><path class="cls-1" d="M0,463.84c21.17,0,21.17,20.16,42.35,20.16s21.17-20.16,42.35-20.16S105.88,484,127.05,484s21.18-20.16,42.35-20.16S190.58,484,211.75,484s21.18-20.16,42.35-20.16S275.28,484,296.45,484s21.18-20.16,42.36-20.16S360,484,381.16,484s21.18-20.16,42.35-20.16S444.69,484,465.86,484s21.18-20.16,42.35-20.16S529.39,484,550.57,484s21.18-20.16,42.35-20.16S614.1,484,635.28,484s21.18-20.16,42.36-20.16S698.82,484,720,484"/><path class="cls-1" d="M0,474.87c21.17,0,21.17,20.16,42.35,20.16s21.17-20.16,42.35-20.16S105.88,495,127.05,495s21.18-20.16,42.35-20.16S190.58,495,211.75,495s21.18-20.16,42.35-20.16S275.28,495,296.45,495s21.18-20.16,42.36-20.16S360,495,381.16,495s21.18-20.16,42.35-20.16S444.69,495,465.86,495s21.18-20.16,42.35-20.16S529.39,495,550.57,495s21.18-20.16,42.35-20.16S614.1,495,635.28,495s21.18-20.16,42.36-20.16S698.82,495,720,495"/><path class="cls-1" d="M0,485.89c21.17,0,21.17,20.16,42.35,20.16s21.17-20.16,42.35-20.16,21.18,20.16,42.35,20.16,21.18-20.16,42.35-20.16,21.18,20.16,42.35,20.16,21.18-20.16,42.35-20.16,21.18,20.16,42.35,20.16,21.18-20.16,42.36-20.16,21.17,20.16,42.35,20.16,21.18-20.16,42.35-20.16,21.18,20.16,42.35,20.16,21.18-20.16,42.35-20.16,21.18,20.16,42.36,20.16,21.18-20.16,42.35-20.16,21.18,20.16,42.36,20.16,21.18-20.16,42.36-20.16,21.18,20.16,42.36,20.16"/><path class="cls-1" d="M0,496.91c21.17,0,21.17,20.16,42.35,20.16s21.17-20.16,42.35-20.16,21.18,20.16,42.35,20.16,21.18-20.16,42.35-20.16,21.18,20.16,42.35,20.16,21.18-20.16,42.35-20.16,21.18,20.16,42.35,20.16,21.18-20.16,42.36-20.16,21.17,20.16,42.35,20.16,21.18-20.16,42.35-20.16,21.18,20.16,42.35,20.16,21.18-20.16,42.35-20.16,21.18,20.16,42.36,20.16,21.18-20.16,42.35-20.16,21.18,20.16,42.36,20.16,21.18-20.16,42.36-20.16,21.18,20.16,42.36,20.16"/><path class="cls-1" d="M0,507.93c21.17,0,21.17,20.16,42.35,20.16s21.17-20.16,42.35-20.16,21.18,20.16,42.35,20.16,21.18-20.16,42.35-20.16,21.18,20.16,42.35,20.16,21.18-20.16,42.35-20.16,21.18,20.16,42.35,20.16,21.18-20.16,42.36-20.16,21.17,20.16,42.35,20.16,21.18-20.16,42.35-20.16,21.18,20.16,42.35,20.16,21.18-20.16,42.35-20.16,21.18,20.16,42.36,20.16,21.18-20.16,42.35-20.16,21.18,20.16,42.36,20.16,21.18-20.16,42.36-20.16,21.18,20.16,42.36,20.16"/><path class="cls-1" d="M0,519c21.17,0,21.17,20.16,42.35,20.16S63.52,519,84.7,519s21.18,20.16,42.35,20.16S148.23,519,169.4,519s21.18,20.16,42.35,20.16S232.93,519,254.1,519s21.18,20.16,42.35,20.16S317.63,519,338.81,519s21.17,20.16,42.35,20.16S402.34,519,423.51,519s21.18,20.16,42.35,20.16S487,519,508.21,519s21.18,20.16,42.36,20.16S571.75,519,592.92,519s21.18,20.16,42.36,20.16S656.46,519,677.64,519s21.18,20.16,42.36,20.16"/><path class="cls-1" d="M0,530c21.17,0,21.17,20.16,42.35,20.16S63.52,530,84.7,530s21.18,20.16,42.35,20.16S148.23,530,169.4,530s21.18,20.16,42.35,20.16S232.93,530,254.1,530s21.18,20.16,42.35,20.16S317.63,530,338.81,530s21.17,20.16,42.35,20.16S402.34,530,423.51,530s21.18,20.16,42.35,20.16S487,530,508.21,530s21.18,20.16,42.36,20.16S571.75,530,592.92,530s21.18,20.16,42.36,20.16S656.46,530,677.64,530s21.18,20.16,42.36,20.16"/><path class="cls-1" d="M0,541c21.17,0,21.17,20.16,42.35,20.16S63.52,541,84.7,541s21.18,20.16,42.35,20.16S148.23,541,169.4,541s21.18,20.16,42.35,20.16S232.93,541,254.1,541s21.18,20.16,42.35,20.16S317.63,541,338.81,541s21.17,20.16,42.35,20.16S402.34,541,423.51,541s21.18,20.16,42.35,20.16S487,541,508.21,541s21.18,20.16,42.36,20.16S571.75,541,592.92,541s21.18,20.16,42.36,20.16S656.46,541,677.64,541s21.18,20.16,42.36,20.16"/><path class="cls-1" d="M0,552c21.17,0,21.17,20.16,42.35,20.16S63.52,552,84.7,552s21.18,20.16,42.35,20.16S148.23,552,169.4,552s21.18,20.16,42.35,20.16S232.93,552,254.1,552s21.18,20.16,42.35,20.16S317.63,552,338.81,552s21.17,20.16,42.35,20.16S402.34,552,423.51,552s21.18,20.16,42.35,20.16S487,552,508.21,552s21.18,20.16,42.36,20.16S571.75,552,592.92,552s21.18,20.16,42.36,20.16S656.46,552,677.64,552s21.18,20.16,42.36,20.16"/><path class="cls-1" d="M0,563c21.17,0,21.17,20.16,42.35,20.16S63.52,563,84.7,563s21.18,20.16,42.35,20.16S148.23,563,169.4,563s21.18,20.16,42.35,20.16S232.93,563,254.1,563s21.18,20.16,42.35,20.16S317.63,563,338.81,563,360,583.2,381.16,583.2,402.34,563,423.51,563s21.18,20.16,42.35,20.16S487,563,508.21,563s21.18,20.16,42.36,20.16S571.75,563,592.92,563s21.18,20.16,42.36,20.16S656.46,563,677.64,563,698.82,583.2,720,583.2"/><path class="cls-1" d="M0,574.06c21.17,0,21.17,20.16,42.35,20.16s21.17-20.16,42.35-20.16,21.18,20.16,42.35,20.16,21.18-20.16,42.35-20.16,21.18,20.16,42.35,20.16,21.18-20.16,42.35-20.16,21.18,20.16,42.35,20.16,21.18-20.16,42.36-20.16,21.17,20.16,42.35,20.16,21.18-20.16,42.35-20.16,21.18,20.16,42.35,20.16,21.18-20.16,42.35-20.16,21.18,20.16,42.36,20.16,21.18-20.16,42.35-20.16,21.18,20.16,42.36,20.16,21.18-20.16,42.36-20.16,21.18,20.16,42.36,20.16"/><path class="cls-1" d="M0,585.08c21.17,0,21.17,20.16,42.35,20.16s21.17-20.16,42.35-20.16,21.18,20.16,42.35,20.16,21.18-20.16,42.35-20.16,21.18,20.16,42.35,20.16,21.18-20.16,42.35-20.16,21.18,20.16,42.35,20.16,21.18-20.16,42.36-20.16,21.17,20.16,42.35,20.16,21.18-20.16,42.35-20.16,21.18,20.16,42.35,20.16,21.18-20.16,42.35-20.16,21.18,20.16,42.36,20.16,21.18-20.16,42.35-20.16,21.18,20.16,42.36,20.16,21.18-20.16,42.36-20.16,21.18,20.16,42.36,20.16"/><path class="cls-1" d="M0,596.1c21.17,0,21.17,20.16,42.35,20.16S63.52,596.1,84.7,596.1s21.18,20.16,42.35,20.16,21.18-20.16,42.35-20.16,21.18,20.16,42.35,20.16,21.18-20.16,42.35-20.16,21.18,20.16,42.35,20.16,21.18-20.16,42.36-20.16,21.17,20.16,42.35,20.16,21.18-20.16,42.35-20.16,21.18,20.16,42.35,20.16S487,596.1,508.21,596.1s21.18,20.16,42.36,20.16,21.18-20.16,42.35-20.16,21.18,20.16,42.36,20.16,21.18-20.16,42.36-20.16,21.18,20.16,42.36,20.16"/><path class="cls-1" d="M0,607.12c21.17,0,21.17,20.16,42.35,20.16s21.17-20.16,42.35-20.16,21.18,20.16,42.35,20.16,21.18-20.16,42.35-20.16,21.18,20.16,42.35,20.16,21.18-20.16,42.35-20.16,21.18,20.16,42.35,20.16,21.18-20.16,42.36-20.16,21.17,20.16,42.35,20.16,21.18-20.16,42.35-20.16,21.18,20.16,42.35,20.16,21.18-20.16,42.35-20.16,21.18,20.16,42.36,20.16,21.18-20.16,42.35-20.16,21.18,20.16,42.36,20.16,21.18-20.16,42.36-20.16,21.18,20.16,42.36,20.16"/><path class="cls-1" d="M0,618.15c21.17,0,21.17,20.16,42.35,20.16s21.17-20.16,42.35-20.16,21.18,20.16,42.35,20.16,21.18-20.16,42.35-20.16,21.18,20.16,42.35,20.16,21.18-20.16,42.35-20.16,21.18,20.16,42.35,20.16,21.18-20.16,42.36-20.16,21.17,20.16,42.35,20.16,21.18-20.16,42.35-20.16,21.18,20.16,42.35,20.16,21.18-20.16,42.35-20.16,21.18,20.16,42.36,20.16,21.18-20.16,42.35-20.16,21.18,20.16,42.36,20.16,21.18-20.16,42.36-20.16,21.18,20.16,42.36,20.16"/><path class="cls-1" d="M0,629.17c21.17,0,21.17,20.16,42.35,20.16s21.17-20.16,42.35-20.16,21.18,20.16,42.35,20.16,21.18-20.16,42.35-20.16,21.18,20.16,42.35,20.16,21.18-20.16,42.35-20.16,21.18,20.16,42.35,20.16,21.18-20.16,42.36-20.16,21.17,20.16,42.35,20.16,21.18-20.16,42.35-20.16,21.18,20.16,42.35,20.16,21.18-20.16,42.35-20.16,21.18,20.16,42.36,20.16,21.18-20.16,42.35-20.16,21.18,20.16,42.36,20.16,21.18-20.16,42.36-20.16,21.18,20.16,42.36,20.16"/><path class="cls-1" d="M0,640.19c21.17,0,21.17,20.16,42.35,20.16s21.17-20.16,42.35-20.16,21.18,20.16,42.35,20.16,21.18-20.16,42.35-20.16,21.18,20.16,42.35,20.16,21.18-20.16,42.35-20.16,21.18,20.16,42.35,20.16,21.18-20.16,42.36-20.16,21.17,20.16,42.35,20.16,21.18-20.16,42.35-20.16,21.18,20.16,42.35,20.16,21.18-20.16,42.35-20.16,21.18,20.16,42.36,20.16,21.18-20.16,42.35-20.16,21.18,20.16,42.36,20.16,21.18-20.16,42.36-20.16,21.18,20.16,42.36,20.16"/><path class="cls-1" d="M0,651.21c21.17,0,21.17,20.16,42.35,20.16s21.17-20.16,42.35-20.16,21.18,20.16,42.35,20.16,21.18-20.16,42.35-20.16,21.18,20.16,42.35,20.16,21.18-20.16,42.35-20.16,21.18,20.16,42.35,20.16,21.18-20.16,42.36-20.16,21.17,20.16,42.35,20.16,21.18-20.16,42.35-20.16,21.18,20.16,42.35,20.16,21.18-20.16,42.35-20.16,21.18,20.16,42.36,20.16,21.18-20.16,42.35-20.16,21.18,20.16,42.36,20.16,21.18-20.16,42.36-20.16,21.18,20.16,42.36,20.16"/><path class="cls-1" d="M0,662.23c21.17,0,21.17,20.16,42.35,20.16s21.17-20.16,42.35-20.16,21.18,20.16,42.35,20.16,21.18-20.16,42.35-20.16,21.18,20.16,42.35,20.16,21.18-20.16,42.35-20.16,21.18,20.16,42.35,20.16,21.18-20.16,42.36-20.16,21.17,20.16,42.35,20.16,21.18-20.16,42.35-20.16,21.18,20.16,42.35,20.16,21.18-20.16,42.35-20.16,21.18,20.16,42.36,20.16,21.18-20.16,42.35-20.16,21.18,20.16,42.36,20.16,21.18-20.16,42.36-20.16,21.18,20.16,42.36,20.16"/><path class="cls-1" d="M0,673.25c21.17,0,21.17,20.16,42.35,20.16s21.17-20.16,42.35-20.16,21.18,20.16,42.35,20.16,21.18-20.16,42.35-20.16,21.18,20.16,42.35,20.16,21.18-20.16,42.35-20.16,21.18,20.16,42.35,20.16,21.18-20.16,42.36-20.16,21.17,20.16,42.35,20.16,21.18-20.16,42.35-20.16,21.18,20.16,42.35,20.16,21.18-20.16,42.35-20.16,21.18,20.16,42.36,20.16,21.18-20.16,42.35-20.16,21.18,20.16,42.36,20.16,21.18-20.16,42.36-20.16,21.18,20.16,42.36,20.16"/><path class="cls-1" d="M0,684.27c21.17,0,21.17,20.16,42.35,20.16s21.17-20.16,42.35-20.16,21.18,20.16,42.35,20.16,21.18-20.16,42.35-20.16,21.18,20.16,42.35,20.16,21.18-20.16,42.35-20.16,21.18,20.16,42.35,20.16,21.18-20.16,42.36-20.16,21.17,20.16,42.35,20.16,21.18-20.16,42.35-20.16,21.18,20.16,42.35,20.16,21.18-20.16,42.35-20.16,21.18,20.16,42.36,20.16,21.18-20.16,42.35-20.16,21.18,20.16,42.36,20.16,21.18-20.16,42.36-20.16,21.18,20.16,42.36,20.16"/><path class="cls-1" d="M0,695.3c21.17,0,21.17,20.16,42.35,20.16S63.52,695.3,84.7,695.3s21.18,20.16,42.35,20.16,21.18-20.16,42.35-20.16,21.18,20.16,42.35,20.16,21.18-20.16,42.35-20.16,21.18,20.16,42.35,20.16,21.18-20.16,42.36-20.16,21.17,20.16,42.35,20.16,21.18-20.16,42.35-20.16,21.18,20.16,42.35,20.16S487,695.3,508.21,695.3s21.18,20.16,42.36,20.16,21.18-20.16,42.35-20.16,21.18,20.16,42.36,20.16,21.18-20.16,42.36-20.16,21.18,20.16,42.36,20.16"/><path class="cls-1" d="M0,706.32c21.17,0,21.17,20.16,42.35,20.16s21.17-20.16,42.35-20.16,21.18,20.16,42.35,20.16,21.18-20.16,42.35-20.16,21.18,20.16,42.35,20.16,21.18-20.16,42.35-20.16,21.18,20.16,42.35,20.16,21.18-20.16,42.36-20.16,21.17,20.16,42.35,20.16,21.18-20.16,42.35-20.16,21.18,20.16,42.35,20.16,21.18-20.16,42.35-20.16,21.18,20.16,42.36,20.16,21.18-20.16,42.35-20.16,21.18,20.16,42.36,20.16,21.18-20.16,42.36-20.16,21.18,20.16,42.36,20.16"/><path class="cls-1" d="M0,717.34c21.17,0,21.17,20.16,42.35,20.16s21.17-20.16,42.35-20.16,21.18,20.16,42.35,20.16,21.18-20.16,42.35-20.16,21.18,20.16,42.35,20.16,21.18-20.16,42.35-20.16,21.18,20.16,42.35,20.16,21.18-20.16,42.36-20.16S360,737.5,381.16,737.5s21.18-20.16,42.35-20.16,21.18,20.16,42.35,20.16,21.18-20.16,42.35-20.16,21.18,20.16,42.36,20.16,21.18-20.16,42.35-20.16,21.18,20.16,42.36,20.16,21.18-20.16,42.36-20.16S698.82,737.5,720,737.5"/><path class="cls-1" d="M0,728.36c21.17,0,21.17,20.16,42.35,20.16s21.17-20.16,42.35-20.16,21.18,20.16,42.35,20.16,21.18-20.16,42.35-20.16,21.18,20.16,42.35,20.16,21.18-20.16,42.35-20.16,21.18,20.16,42.35,20.16,21.18-20.16,42.36-20.16,21.17,20.16,42.35,20.16,21.18-20.16,42.35-20.16,21.18,20.16,42.35,20.16,21.18-20.16,42.35-20.16,21.18,20.16,42.36,20.16,21.18-20.16,42.35-20.16,21.18,20.16,42.36,20.16,21.18-20.16,42.36-20.16,21.18,20.16,42.36,20.16"/><path class="cls-1" d="M0,739.38c21.17,0,21.17,20.16,42.35,20.16s21.17-20.16,42.35-20.16,21.18,20.16,42.35,20.16,21.18-20.16,42.35-20.16,21.18,20.16,42.35,20.16,21.18-20.16,42.35-20.16,21.18,20.16,42.35,20.16,21.18-20.16,42.36-20.16,21.17,20.16,42.35,20.16,21.18-20.16,42.35-20.16,21.18,20.16,42.35,20.16,21.18-20.16,42.35-20.16,21.18,20.16,42.36,20.16,21.18-20.16,42.35-20.16,21.18,20.16,42.36,20.16,21.18-20.16,42.36-20.16,21.18,20.16,42.36,20.16"/><path class="cls-1" d="M0,750.4c21.17,0,21.17,20.16,42.35,20.16S63.52,750.4,84.7,750.4s21.18,20.16,42.35,20.16,21.18-20.16,42.35-20.16,21.18,20.16,42.35,20.16,21.18-20.16,42.35-20.16,21.18,20.16,42.35,20.16,21.18-20.16,42.36-20.16,21.17,20.16,42.35,20.16,21.18-20.16,42.35-20.16,21.18,20.16,42.35,20.16S487,750.4,508.21,750.4s21.18,20.16,42.36,20.16,21.18-20.16,42.35-20.16,21.18,20.16,42.36,20.16,21.18-20.16,42.36-20.16,21.18,20.16,42.36,20.16"/><path class="cls-1" d="M0,761.43c21.17,0,21.17,20.16,42.35,20.16s21.17-20.16,42.35-20.16,21.18,20.16,42.35,20.16,21.18-20.16,42.35-20.16,21.18,20.16,42.35,20.16,21.18-20.16,42.35-20.16,21.18,20.16,42.35,20.16,21.18-20.16,42.36-20.16,21.17,20.16,42.35,20.16,21.18-20.16,42.35-20.16,21.18,20.16,42.35,20.16,21.18-20.16,42.35-20.16,21.18,20.16,42.36,20.16,21.18-20.16,42.35-20.16,21.18,20.16,42.36,20.16,21.18-20.16,42.36-20.16,21.18,20.16,42.36,20.16"/><path class="cls-1" d="M0,772.45c21.17,0,21.17,20.16,42.35,20.16s21.17-20.16,42.35-20.16,21.18,20.16,42.35,20.16,21.18-20.16,42.35-20.16,21.18,20.16,42.35,20.16,21.18-20.16,42.35-20.16,21.18,20.16,42.35,20.16,21.18-20.16,42.36-20.16,21.17,20.16,42.35,20.16,21.18-20.16,42.35-20.16,21.18,20.16,42.35,20.16,21.18-20.16,42.35-20.16,21.18,20.16,42.36,20.16,21.18-20.16,42.35-20.16,21.18,20.16,42.36,20.16,21.18-20.16,42.36-20.16,21.18,20.16,42.36,20.16"/><path class="cls-1" d="M0,783.47c21.17,0,21.17,20.16,42.35,20.16s21.17-20.16,42.35-20.16,21.18,20.16,42.35,20.16,21.18-20.16,42.35-20.16,21.18,20.16,42.35,20.16,21.18-20.16,42.35-20.16,21.18,20.16,42.35,20.16,21.18-20.16,42.36-20.16,21.17,20.16,42.35,20.16,21.18-20.16,42.35-20.16,21.18,20.16,42.35,20.16,21.18-20.16,42.35-20.16,21.18,20.16,42.36,20.16,21.18-20.16,42.35-20.16,21.18,20.16,42.36,20.16,21.18-20.16,42.36-20.16,21.18,20.16,42.36,20.16"/><path class="cls-1" d="M0,794.49c21.17,0,21.17,20.16,42.35,20.16s21.17-20.16,42.35-20.16,21.18,20.16,42.35,20.16,21.18-20.16,42.35-20.16,21.18,20.16,42.35,20.16,21.18-20.16,42.35-20.16,21.18,20.16,42.35,20.16,21.18-20.16,42.36-20.16,21.17,20.16,42.35,20.16,21.18-20.16,42.35-20.16,21.18,20.16,42.35,20.16,21.18-20.16,42.35-20.16,21.18,20.16,42.36,20.16,21.18-20.16,42.35-20.16,21.18,20.16,42.36,20.16,21.18-20.16,42.36-20.16,21.18,20.16,42.36,20.16"/><path class="cls-1" d="M0,805.51c21.17,0,21.17,20.16,42.35,20.16s21.17-20.16,42.35-20.16,21.18,20.16,42.35,20.16,21.18-20.16,42.35-20.16,21.18,20.16,42.35,20.16,21.18-20.16,42.35-20.16,21.18,20.16,42.35,20.16,21.18-20.16,42.36-20.16,21.17,20.16,42.35,20.16,21.18-20.16,42.35-20.16,21.18,20.16,42.35,20.16,21.18-20.16,42.35-20.16,21.18,20.16,42.36,20.16,21.18-20.16,42.35-20.16,21.18,20.16,42.36,20.16,21.18-20.16,42.36-20.16,21.18,20.16,42.36,20.16"/><path class="cls-1" d="M0,816.53c21.17,0,21.17,20.16,42.35,20.16s21.17-20.16,42.35-20.16,21.18,20.16,42.35,20.16,21.18-20.16,42.35-20.16,21.18,20.16,42.35,20.16,21.18-20.16,42.35-20.16,21.18,20.16,42.35,20.16,21.18-20.16,42.36-20.16,21.17,20.16,42.35,20.16,21.18-20.16,42.35-20.16,21.18,20.16,42.35,20.16,21.18-20.16,42.35-20.16,21.18,20.16,42.36,20.16,21.18-20.16,42.35-20.16,21.18,20.16,42.36,20.16,21.18-20.16,42.36-20.16,21.18,20.16,42.36,20.16"/><path class="cls-1" d="M0,827.55c21.17,0,21.17,20.16,42.35,20.16s21.17-20.16,42.35-20.16,21.18,20.16,42.35,20.16,21.18-20.16,42.35-20.16,21.18,20.16,42.35,20.16,21.18-20.16,42.35-20.16,21.18,20.16,42.35,20.16,21.18-20.16,42.36-20.16,21.17,20.16,42.35,20.16,21.18-20.16,42.35-20.16,21.18,20.16,42.35,20.16,21.18-20.16,42.35-20.16,21.18,20.16,42.36,20.16,21.18-20.16,42.35-20.16,21.18,20.16,42.36,20.16,21.18-20.16,42.36-20.16,21.18,20.16,42.36,20.16"/><path class="cls-1" d="M0,838.58c21.17,0,21.17,20.16,42.35,20.16s21.17-20.16,42.35-20.16,21.18,20.16,42.35,20.16,21.18-20.16,42.35-20.16,21.18,20.16,42.35,20.16,21.18-20.16,42.35-20.16,21.18,20.16,42.35,20.16,21.18-20.16,42.36-20.16,21.17,20.16,42.35,20.16,21.18-20.16,42.35-20.16,21.18,20.16,42.35,20.16,21.18-20.16,42.35-20.16,21.18,20.16,42.36,20.16,21.18-20.16,42.35-20.16,21.18,20.16,42.36,20.16,21.18-20.16,42.36-20.16,21.18,20.16,42.36,20.16"/><path class="cls-1" d="M0,849.6c21.17,0,21.17,20.16,42.35,20.16S63.52,849.6,84.7,849.6s21.18,20.16,42.35,20.16,21.18-20.16,42.35-20.16,21.18,20.16,42.35,20.16,21.18-20.16,42.35-20.16,21.18,20.16,42.35,20.16,21.18-20.16,42.36-20.16,21.17,20.16,42.35,20.16,21.18-20.16,42.35-20.16,21.18,20.16,42.35,20.16S487,849.6,508.21,849.6s21.18,20.16,42.36,20.16,21.18-20.16,42.35-20.16,21.18,20.16,42.36,20.16,21.18-20.16,42.36-20.16,21.18,20.16,42.36,20.16"/><path class="cls-1" d="M0,860.62c21.17,0,21.17,20.16,42.35,20.16s21.17-20.16,42.35-20.16,21.18,20.16,42.35,20.16,21.18-20.16,42.35-20.16,21.18,20.16,42.35,20.16,21.18-20.16,42.35-20.16,21.18,20.16,42.35,20.16,21.18-20.16,42.36-20.16,21.17,20.16,42.35,20.16,21.18-20.16,42.35-20.16,21.18,20.16,42.35,20.16,21.18-20.16,42.35-20.16,21.18,20.16,42.36,20.16,21.18-20.16,42.35-20.16,21.18,20.16,42.36,20.16,21.18-20.16,42.36-20.16,21.18,20.16,42.36,20.16"/><path class="cls-1" d="M0,871.64c21.17,0,21.17,20.16,42.35,20.16s21.17-20.16,42.35-20.16,21.18,20.16,42.35,20.16,21.18-20.16,42.35-20.16,21.18,20.16,42.35,20.16,21.18-20.16,42.35-20.16,21.18,20.16,42.35,20.16,21.18-20.16,42.36-20.16S360,891.8,381.16,891.8s21.18-20.16,42.35-20.16,21.18,20.16,42.35,20.16,21.18-20.16,42.35-20.16,21.18,20.16,42.36,20.16,21.18-20.16,42.35-20.16,21.18,20.16,42.36,20.16,21.18-20.16,42.36-20.16S698.82,891.8,720,891.8"/><path class="cls-1" d="M0,882.66c21.17,0,21.17,20.16,42.35,20.16s21.17-20.16,42.35-20.16,21.18,20.16,42.35,20.16,21.18-20.16,42.35-20.16,21.18,20.16,42.35,20.16,21.18-20.16,42.35-20.16,21.18,20.16,42.35,20.16,21.18-20.16,42.36-20.16,21.17,20.16,42.35,20.16,21.18-20.16,42.35-20.16,21.18,20.16,42.35,20.16,21.18-20.16,42.35-20.16,21.18,20.16,42.36,20.16,21.18-20.16,42.35-20.16,21.18,20.16,42.36,20.16,21.18-20.16,42.36-20.16,21.18,20.16,42.36,20.16"/><path class="cls-1" d="M0,893.68c21.17,0,21.17,20.16,42.35,20.16s21.17-20.16,42.35-20.16,21.18,20.16,42.35,20.16,21.18-20.16,42.35-20.16,21.18,20.16,42.35,20.16,21.18-20.16,42.35-20.16,21.18,20.16,42.35,20.16,21.18-20.16,42.36-20.16,21.17,20.16,42.35,20.16,21.18-20.16,42.35-20.16,21.18,20.16,42.35,20.16,21.18-20.16,42.35-20.16,21.18,20.16,42.36,20.16,21.18-20.16,42.35-20.16,21.18,20.16,42.36,20.16,21.18-20.16,42.36-20.16,21.18,20.16,42.36,20.16"/><path class="cls-1" d="M0,904.7c21.17,0,21.17,20.16,42.35,20.16S63.52,904.7,84.7,904.7s21.18,20.16,42.35,20.16,21.18-20.16,42.35-20.16,21.18,20.16,42.35,20.16,21.18-20.16,42.35-20.16,21.18,20.16,42.35,20.16,21.18-20.16,42.36-20.16,21.17,20.16,42.35,20.16,21.18-20.16,42.35-20.16,21.18,20.16,42.35,20.16S487,904.7,508.21,904.7s21.18,20.16,42.36,20.16,21.18-20.16,42.35-20.16,21.18,20.16,42.36,20.16,21.18-20.16,42.36-20.16,21.18,20.16,42.36,20.16"/><path class="cls-1" d="M0,915.73c21.17,0,21.17,20.16,42.35,20.16s21.17-20.16,42.35-20.16,21.18,20.16,42.35,20.16,21.18-20.16,42.35-20.16,21.18,20.16,42.35,20.16,21.18-20.16,42.35-20.16,21.18,20.16,42.35,20.16,21.18-20.16,42.36-20.16,21.17,20.16,42.35,20.16,21.18-20.16,42.35-20.16,21.18,20.16,42.35,20.16,21.18-20.16,42.35-20.16,21.18,20.16,42.36,20.16,21.18-20.16,42.35-20.16,21.18,20.16,42.36,20.16,21.18-20.16,42.36-20.16,21.18,20.16,42.36,20.16"/><path class="cls-1" d="M0,926.75c21.17,0,21.17,20.16,42.35,20.16s21.17-20.16,42.35-20.16,21.18,20.16,42.35,20.16,21.18-20.16,42.35-20.16,21.18,20.16,42.35,20.16,21.18-20.16,42.35-20.16,21.18,20.16,42.35,20.16,21.18-20.16,42.36-20.16,21.17,20.16,42.35,20.16,21.18-20.16,42.35-20.16,21.18,20.16,42.35,20.16,21.18-20.16,42.35-20.16,21.18,20.16,42.36,20.16,21.18-20.16,42.35-20.16,21.18,20.16,42.36,20.16,21.18-20.16,42.36-20.16,21.18,20.16,42.36,20.16"/><path class="cls-1" d="M0,937.77c21.17,0,21.17,20.16,42.35,20.16s21.17-20.16,42.35-20.16,21.18,20.16,42.35,20.16,21.18-20.16,42.35-20.16,21.18,20.16,42.35,20.16,21.18-20.16,42.35-20.16,21.18,20.16,42.35,20.16,21.18-20.16,42.36-20.16,21.17,20.16,42.35,20.16,21.18-20.16,42.35-20.16,21.18,20.16,42.35,20.16,21.18-20.16,42.35-20.16,21.18,20.16,42.36,20.16,21.18-20.16,42.35-20.16,21.18,20.16,42.36,20.16,21.18-20.16,42.36-20.16,21.18,20.16,42.36,20.16"/><path class="cls-1" d="M0,948.79c21.17,0,21.17,20.16,42.35,20.16s21.17-20.16,42.35-20.16S105.88,969,127.05,969s21.18-20.16,42.35-20.16S190.58,969,211.75,969s21.18-20.16,42.35-20.16S275.28,969,296.45,969s21.18-20.16,42.36-20.16S360,969,381.16,969s21.18-20.16,42.35-20.16S444.69,969,465.86,969s21.18-20.16,42.35-20.16S529.39,969,550.57,969s21.18-20.16,42.35-20.16S614.1,969,635.28,969s21.18-20.16,42.36-20.16S698.82,969,720,969"/><path class="cls-1" d="M0,959.81c21.17,0,21.17,20.16,42.35,20.16s21.17-20.16,42.35-20.16S105.88,980,127.05,980s21.18-20.16,42.35-20.16S190.58,980,211.75,980s21.18-20.16,42.35-20.16S275.28,980,296.45,980s21.18-20.16,42.36-20.16S360,980,381.16,980s21.18-20.16,42.35-20.16S444.69,980,465.86,980s21.18-20.16,42.35-20.16S529.39,980,550.57,980s21.18-20.16,42.35-20.16S614.1,980,635.28,980s21.18-20.16,42.36-20.16S698.82,980,720,980"/><path class="cls-1" d="M0,970.83c21.17,0,21.17,20.16,42.35,20.16s21.17-20.16,42.35-20.16S105.88,991,127.05,991s21.18-20.16,42.35-20.16S190.58,991,211.75,991s21.18-20.16,42.35-20.16S275.28,991,296.45,991s21.18-20.16,42.36-20.16S360,991,381.16,991s21.18-20.16,42.35-20.16S444.69,991,465.86,991s21.18-20.16,42.35-20.16S529.39,991,550.57,991s21.18-20.16,42.35-20.16S614.1,991,635.28,991s21.18-20.16,42.36-20.16S698.82,991,720,991"/><path class="cls-1" d="M0,981.86c21.17,0,21.17,20.16,42.35,20.16s21.17-20.16,42.35-20.16S105.88,1002,127.05,1002s21.18-20.16,42.35-20.16S190.58,1002,211.75,1002s21.18-20.16,42.35-20.16S275.28,1002,296.45,1002s21.18-20.16,42.36-20.16S360,1002,381.16,1002s21.18-20.16,42.35-20.16S444.69,1002,465.86,1002s21.18-20.16,42.35-20.16S529.39,1002,550.57,1002s21.18-20.16,42.35-20.16S614.1,1002,635.28,1002s21.18-20.16,42.36-20.16S698.82,1002,720,1002"/><path class="cls-1" d="M0,992.88c21.17,0,21.17,20.16,42.35,20.16s21.17-20.16,42.35-20.16S105.88,1013,127.05,1013s21.18-20.16,42.35-20.16S190.58,1013,211.75,1013s21.18-20.16,42.35-20.16S275.28,1013,296.45,1013s21.18-20.16,42.36-20.16S360,1013,381.16,1013s21.18-20.16,42.35-20.16S444.69,1013,465.86,1013s21.18-20.16,42.35-20.16S529.39,1013,550.57,1013s21.18-20.16,42.35-20.16S614.1,1013,635.28,1013s21.18-20.16,42.36-20.16S698.82,1013,720,1013"/><path class="cls-1" d="M0,1003.9c21.17,0,21.17,20.16,42.35,20.16s21.17-20.16,42.35-20.16,21.18,20.16,42.35,20.16,21.18-20.16,42.35-20.16,21.18,20.16,42.35,20.16,21.18-20.16,42.35-20.16,21.18,20.16,42.35,20.16,21.18-20.16,42.36-20.16,21.17,20.16,42.35,20.16,21.18-20.16,42.35-20.16,21.18,20.16,42.35,20.16,21.18-20.16,42.35-20.16,21.18,20.16,42.36,20.16,21.18-20.16,42.35-20.16,21.18,20.16,42.36,20.16,21.18-20.16,42.36-20.16,21.18,20.16,42.36,20.16"/><path class="cls-1" d="M0,1014.92c21.17,0,21.17,20.16,42.35,20.16s21.17-20.16,42.35-20.16,21.18,20.16,42.35,20.16,21.18-20.16,42.35-20.16,21.18,20.16,42.35,20.16,21.18-20.16,42.35-20.16,21.18,20.16,42.35,20.16,21.18-20.16,42.36-20.16,21.17,20.16,42.35,20.16,21.18-20.16,42.35-20.16,21.18,20.16,42.35,20.16,21.18-20.16,42.35-20.16,21.18,20.16,42.36,20.16,21.18-20.16,42.35-20.16,21.18,20.16,42.36,20.16,21.18-20.16,42.36-20.16,21.18,20.16,42.36,20.16"/><path class="cls-1" d="M9.76,0c0,24.4-14.4,24.4-14.4,48.81s14.4,24.4,14.4,48.81-14.4,24.4-14.4,48.8,14.4,24.41,14.4,48.81-14.4,24.4-14.4,48.8,14.4,24.41,14.4,48.81-14.4,24.4-14.4,48.81,14.4,24.4,14.4,48.81-14.4,24.4-14.4,48.8,14.4,24.41,14.4,48.81-14.4,24.4-14.4,48.81,14.4,24.4,14.4,48.81-14.4,24.4-14.4,48.81,14.4,24.4,14.4,48.81-14.4,24.41-14.4,48.81,14.4,24.41,14.4,48.81-14.4,24.41-14.4,48.81,14.4,24.41,14.4,48.81S-4.64,903-4.64,927.36s14.4,24.41,14.4,48.82-14.4,24.41-14.4,48.82"/><path class="cls-1" d="M43.92,0c0,24.4-14.4,24.4-14.4,48.81s14.4,24.4,14.4,48.81-14.4,24.4-14.4,48.8,14.4,24.41,14.4,48.81-14.4,24.4-14.4,48.8,14.4,24.41,14.4,48.81-14.4,24.4-14.4,48.81,14.4,24.4,14.4,48.81-14.4,24.4-14.4,48.8,14.4,24.41,14.4,48.81-14.4,24.4-14.4,48.81,14.4,24.4,14.4,48.81-14.4,24.4-14.4,48.81,14.4,24.4,14.4,48.81-14.4,24.41-14.4,48.81,14.4,24.41,14.4,48.81-14.4,24.41-14.4,48.81,14.4,24.41,14.4,48.81S29.52,903,29.52,927.36s14.4,24.41,14.4,48.82-14.4,24.41-14.4,48.82"/><path class="cls-1" d="M78.09,0c0,24.4-14.4,24.4-14.4,48.81s14.4,24.4,14.4,48.81-14.4,24.4-14.4,48.8,14.4,24.41,14.4,48.81-14.4,24.4-14.4,48.8,14.4,24.41,14.4,48.81-14.4,24.4-14.4,48.81,14.4,24.4,14.4,48.81-14.4,24.4-14.4,48.8,14.4,24.41,14.4,48.81-14.4,24.4-14.4,48.81,14.4,24.4,14.4,48.81-14.4,24.4-14.4,48.81,14.4,24.4,14.4,48.81-14.4,24.41-14.4,48.81,14.4,24.41,14.4,48.81-14.4,24.41-14.4,48.81,14.4,24.41,14.4,48.81S63.69,903,63.69,927.36s14.4,24.41,14.4,48.82-14.4,24.41-14.4,48.82"/><path class="cls-1" d="M112.25,0c0,24.4-14.4,24.4-14.4,48.81s14.4,24.4,14.4,48.81-14.4,24.4-14.4,48.8,14.4,24.41,14.4,48.81-14.4,24.4-14.4,48.8,14.4,24.41,14.4,48.81-14.4,24.4-14.4,48.81,14.4,24.4,14.4,48.81-14.4,24.4-14.4,48.8,14.4,24.41,14.4,48.81-14.4,24.4-14.4,48.81,14.4,24.4,14.4,48.81-14.4,24.4-14.4,48.81,14.4,24.4,14.4,48.81-14.4,24.41-14.4,48.81,14.4,24.41,14.4,48.81-14.4,24.41-14.4,48.81,14.4,24.41,14.4,48.81S97.85,903,97.85,927.36s14.4,24.41,14.4,48.82-14.4,24.41-14.4,48.82"/><path class="cls-1" d="M146.41,0c0,24.4-14.4,24.4-14.4,48.81s14.4,24.4,14.4,48.81S132,122,132,146.42s14.4,24.41,14.4,48.81S132,219.63,132,244s14.4,24.41,14.4,48.81S132,317.24,132,341.65s14.4,24.4,14.4,48.81-14.4,24.4-14.4,48.8,14.4,24.41,14.4,48.81S132,512.47,132,536.88s14.4,24.4,14.4,48.81S132,610.09,132,634.5s14.4,24.4,14.4,48.81S132,707.72,132,732.12s14.4,24.41,14.4,48.81S132,805.34,132,829.74s14.4,24.41,14.4,48.81S132,903,132,927.36s14.4,24.41,14.4,48.82S132,1000.59,132,1025"/><path class="cls-1" d="M180.58,0c0,24.4-14.4,24.4-14.4,48.81s14.4,24.4,14.4,48.81-14.4,24.4-14.4,48.8,14.4,24.41,14.4,48.81-14.4,24.4-14.4,48.8,14.4,24.41,14.4,48.81-14.4,24.4-14.4,48.81,14.4,24.4,14.4,48.81-14.4,24.4-14.4,48.8,14.4,24.41,14.4,48.81-14.4,24.4-14.4,48.81,14.4,24.4,14.4,48.81-14.4,24.4-14.4,48.81,14.4,24.4,14.4,48.81-14.4,24.41-14.4,48.81,14.4,24.41,14.4,48.81-14.4,24.41-14.4,48.81,14.4,24.41,14.4,48.81-14.4,24.41-14.4,48.81,14.4,24.41,14.4,48.82-14.4,24.41-14.4,48.82"/><path class="cls-1" d="M214.74,0c0,24.4-14.4,24.4-14.4,48.81s14.4,24.4,14.4,48.81-14.4,24.4-14.4,48.8,14.4,24.41,14.4,48.81-14.4,24.4-14.4,48.8,14.4,24.41,14.4,48.81-14.4,24.4-14.4,48.81,14.4,24.4,14.4,48.81-14.4,24.4-14.4,48.8,14.4,24.41,14.4,48.81-14.4,24.4-14.4,48.81,14.4,24.4,14.4,48.81-14.4,24.4-14.4,48.81,14.4,24.4,14.4,48.81-14.4,24.41-14.4,48.81,14.4,24.41,14.4,48.81-14.4,24.41-14.4,48.81,14.4,24.41,14.4,48.81-14.4,24.41-14.4,48.81,14.4,24.41,14.4,48.82-14.4,24.41-14.4,48.82"/><path class="cls-1" d="M248.91,0c0,24.4-14.4,24.4-14.4,48.81s14.4,24.4,14.4,48.81-14.4,24.4-14.4,48.8,14.4,24.41,14.4,48.81-14.4,24.4-14.4,48.8,14.4,24.41,14.4,48.81-14.4,24.4-14.4,48.81,14.4,24.4,14.4,48.81-14.4,24.4-14.4,48.8,14.4,24.41,14.4,48.81-14.4,24.4-14.4,48.81,14.4,24.4,14.4,48.81-14.4,24.4-14.4,48.81,14.4,24.4,14.4,48.81-14.4,24.41-14.4,48.81,14.4,24.41,14.4,48.81-14.4,24.41-14.4,48.81,14.4,24.41,14.4,48.81-14.4,24.41-14.4,48.81,14.4,24.41,14.4,48.82-14.4,24.41-14.4,48.82"/><path class="cls-1" d="M283.07,0c0,24.4-14.4,24.4-14.4,48.81s14.4,24.4,14.4,48.81-14.4,24.4-14.4,48.8,14.4,24.41,14.4,48.81-14.4,24.4-14.4,48.8,14.4,24.41,14.4,48.81-14.4,24.4-14.4,48.81,14.4,24.4,14.4,48.81-14.4,24.4-14.4,48.8,14.4,24.41,14.4,48.81-14.4,24.4-14.4,48.81,14.4,24.4,14.4,48.81-14.4,24.4-14.4,48.81,14.4,24.4,14.4,48.81-14.4,24.41-14.4,48.81,14.4,24.41,14.4,48.81-14.4,24.41-14.4,48.81,14.4,24.41,14.4,48.81-14.4,24.41-14.4,48.81,14.4,24.41,14.4,48.82-14.4,24.41-14.4,48.82"/><path class="cls-1" d="M317.23,0c0,24.4-14.4,24.4-14.4,48.81s14.4,24.4,14.4,48.81-14.4,24.4-14.4,48.8,14.4,24.41,14.4,48.81-14.4,24.4-14.4,48.8,14.4,24.41,14.4,48.81-14.4,24.4-14.4,48.81,14.4,24.4,14.4,48.81-14.4,24.4-14.4,48.8,14.4,24.41,14.4,48.81-14.4,24.4-14.4,48.81,14.4,24.4,14.4,48.81-14.4,24.4-14.4,48.81,14.4,24.4,14.4,48.81-14.4,24.41-14.4,48.81,14.4,24.41,14.4,48.81-14.4,24.41-14.4,48.81,14.4,24.41,14.4,48.81-14.4,24.41-14.4,48.81,14.4,24.41,14.4,48.82-14.4,24.41-14.4,48.82"/><path class="cls-1" d="M351.4,0c0,24.4-14.4,24.4-14.4,48.81s14.4,24.4,14.4,48.81S337,122,337,146.42s14.4,24.41,14.4,48.81S337,219.63,337,244s14.4,24.41,14.4,48.81S337,317.24,337,341.65s14.4,24.4,14.4,48.81-14.4,24.4-14.4,48.8,14.4,24.41,14.4,48.81S337,512.47,337,536.88s14.4,24.4,14.4,48.81S337,610.09,337,634.5s14.4,24.4,14.4,48.81S337,707.72,337,732.12s14.4,24.41,14.4,48.81S337,805.34,337,829.74s14.4,24.41,14.4,48.81S337,903,337,927.36s14.4,24.41,14.4,48.82S337,1000.59,337,1025"/><path class="cls-1" d="M385.56,0c0,24.4-14.4,24.4-14.4,48.81s14.4,24.4,14.4,48.81-14.4,24.4-14.4,48.8,14.4,24.41,14.4,48.81-14.4,24.4-14.4,48.8,14.4,24.41,14.4,48.81-14.4,24.4-14.4,48.81,14.4,24.4,14.4,48.81-14.4,24.4-14.4,48.8,14.4,24.41,14.4,48.81-14.4,24.4-14.4,48.81,14.4,24.4,14.4,48.81-14.4,24.4-14.4,48.81,14.4,24.4,14.4,48.81-14.4,24.41-14.4,48.81,14.4,24.41,14.4,48.81-14.4,24.41-14.4,48.81,14.4,24.41,14.4,48.81-14.4,24.41-14.4,48.81,14.4,24.41,14.4,48.82-14.4,24.41-14.4,48.82"/><path class="cls-1" d="M419.72,0c0,24.4-14.4,24.4-14.4,48.81s14.4,24.4,14.4,48.81-14.4,24.4-14.4,48.8,14.4,24.41,14.4,48.81-14.4,24.4-14.4,48.8,14.4,24.41,14.4,48.81-14.4,24.4-14.4,48.81,14.4,24.4,14.4,48.81-14.4,24.4-14.4,48.8,14.4,24.41,14.4,48.81-14.4,24.4-14.4,48.81,14.4,24.4,14.4,48.81-14.4,24.4-14.4,48.81,14.4,24.4,14.4,48.81-14.4,24.41-14.4,48.81,14.4,24.41,14.4,48.81-14.4,24.41-14.4,48.81,14.4,24.41,14.4,48.81-14.4,24.41-14.4,48.81,14.4,24.41,14.4,48.82-14.4,24.41-14.4,48.82"/><path class="cls-1" d="M453.89,0c0,24.4-14.4,24.4-14.4,48.81s14.4,24.4,14.4,48.81-14.4,24.4-14.4,48.8,14.4,24.41,14.4,48.81-14.4,24.4-14.4,48.8,14.4,24.41,14.4,48.81-14.4,24.4-14.4,48.81,14.4,24.4,14.4,48.81-14.4,24.4-14.4,48.8,14.4,24.41,14.4,48.81-14.4,24.4-14.4,48.81,14.4,24.4,14.4,48.81-14.4,24.4-14.4,48.81,14.4,24.4,14.4,48.81-14.4,24.41-14.4,48.81,14.4,24.41,14.4,48.81-14.4,24.41-14.4,48.81,14.4,24.41,14.4,48.81-14.4,24.41-14.4,48.81,14.4,24.41,14.4,48.82-14.4,24.41-14.4,48.82"/><path class="cls-1" d="M488.05,0c0,24.4-14.4,24.4-14.4,48.81s14.4,24.4,14.4,48.81-14.4,24.4-14.4,48.8,14.4,24.41,14.4,48.81-14.4,24.4-14.4,48.8,14.4,24.41,14.4,48.81-14.4,24.4-14.4,48.81,14.4,24.4,14.4,48.81-14.4,24.4-14.4,48.8,14.4,24.41,14.4,48.81-14.4,24.4-14.4,48.81,14.4,24.4,14.4,48.81-14.4,24.4-14.4,48.81,14.4,24.4,14.4,48.81-14.4,24.41-14.4,48.81,14.4,24.41,14.4,48.81-14.4,24.41-14.4,48.81,14.4,24.41,14.4,48.81-14.4,24.41-14.4,48.81,14.4,24.41,14.4,48.82-14.4,24.41-14.4,48.82"/><path class="cls-1" d="M522.22,0c0,24.4-14.4,24.4-14.4,48.81s14.4,24.4,14.4,48.81-14.4,24.4-14.4,48.8,14.4,24.41,14.4,48.81-14.4,24.4-14.4,48.8,14.4,24.41,14.4,48.81-14.4,24.4-14.4,48.81,14.4,24.4,14.4,48.81-14.4,24.4-14.4,48.8,14.4,24.41,14.4,48.81-14.4,24.4-14.4,48.81,14.4,24.4,14.4,48.81-14.4,24.4-14.4,48.81,14.4,24.4,14.4,48.81-14.4,24.41-14.4,48.81,14.4,24.41,14.4,48.81-14.4,24.41-14.4,48.81,14.4,24.41,14.4,48.81-14.4,24.41-14.4,48.81,14.4,24.41,14.4,48.82-14.4,24.41-14.4,48.82"/><path class="cls-1" d="M556.38,0c0,24.4-14.4,24.4-14.4,48.81s14.4,24.4,14.4,48.81S542,122,542,146.42s14.4,24.41,14.4,48.81S542,219.63,542,244s14.4,24.41,14.4,48.81S542,317.24,542,341.65s14.4,24.4,14.4,48.81-14.4,24.4-14.4,48.8,14.4,24.41,14.4,48.81S542,512.47,542,536.88s14.4,24.4,14.4,48.81S542,610.09,542,634.5s14.4,24.4,14.4,48.81S542,707.72,542,732.12s14.4,24.41,14.4,48.81S542,805.34,542,829.74s14.4,24.41,14.4,48.81S542,903,542,927.36s14.4,24.41,14.4,48.82S542,1000.59,542,1025"/><path class="cls-1" d="M590.54,0c0,24.4-14.4,24.4-14.4,48.81s14.4,24.4,14.4,48.81-14.4,24.4-14.4,48.8,14.4,24.41,14.4,48.81-14.4,24.4-14.4,48.8,14.4,24.41,14.4,48.81-14.4,24.4-14.4,48.81,14.4,24.4,14.4,48.81-14.4,24.4-14.4,48.8,14.4,24.41,14.4,48.81-14.4,24.4-14.4,48.81,14.4,24.4,14.4,48.81-14.4,24.4-14.4,48.81,14.4,24.4,14.4,48.81-14.4,24.41-14.4,48.81,14.4,24.41,14.4,48.81-14.4,24.41-14.4,48.81,14.4,24.41,14.4,48.81-14.4,24.41-14.4,48.81,14.4,24.41,14.4,48.82-14.4,24.41-14.4,48.82"/><path class="cls-1" d="M624.71,0c0,24.4-14.4,24.4-14.4,48.81s14.4,24.4,14.4,48.81-14.4,24.4-14.4,48.8,14.4,24.41,14.4,48.81-14.4,24.4-14.4,48.8,14.4,24.41,14.4,48.81-14.4,24.4-14.4,48.81,14.4,24.4,14.4,48.81-14.4,24.4-14.4,48.8,14.4,24.41,14.4,48.81-14.4,24.4-14.4,48.81,14.4,24.4,14.4,48.81-14.4,24.4-14.4,48.81,14.4,24.4,14.4,48.81-14.4,24.41-14.4,48.81,14.4,24.41,14.4,48.81-14.4,24.41-14.4,48.81,14.4,24.41,14.4,48.81-14.4,24.41-14.4,48.81,14.4,24.41,14.4,48.82-14.4,24.41-14.4,48.82"/><path class="cls-1" d="M658.87,0c0,24.4-14.4,24.4-14.4,48.81s14.4,24.4,14.4,48.81-14.4,24.4-14.4,48.8,14.4,24.41,14.4,48.81-14.4,24.4-14.4,48.8,14.4,24.41,14.4,48.81-14.4,24.4-14.4,48.81,14.4,24.4,14.4,48.81-14.4,24.4-14.4,48.8,14.4,24.41,14.4,48.81-14.4,24.4-14.4,48.81,14.4,24.4,14.4,48.81-14.4,24.4-14.4,48.81,14.4,24.4,14.4,48.81-14.4,24.41-14.4,48.81,14.4,24.41,14.4,48.81-14.4,24.41-14.4,48.81,14.4,24.41,14.4,48.81-14.4,24.41-14.4,48.81,14.4,24.41,14.4,48.82-14.4,24.41-14.4,48.82"/><path class="cls-1" d="M693,0c0,24.4-14.4,24.4-14.4,48.81S693,73.21,693,97.62s-14.4,24.4-14.4,48.8S693,170.83,693,195.23s-14.4,24.4-14.4,48.8S693,268.44,693,292.84s-14.4,24.4-14.4,48.81,14.4,24.4,14.4,48.81-14.4,24.4-14.4,48.8S693,463.67,693,488.07s-14.4,24.4-14.4,48.81,14.4,24.4,14.4,48.81-14.4,24.4-14.4,48.81S693,658.9,693,683.31s-14.4,24.41-14.4,48.81S693,756.53,693,780.93s-14.4,24.41-14.4,48.81S693,854.15,693,878.55s-14.4,24.41-14.4,48.81S693,951.77,693,976.18s-14.4,24.41-14.4,48.82"/><path class="cls-1" d="M727.2,0c0,24.4-14.4,24.4-14.4,48.81s14.4,24.4,14.4,48.81-14.4,24.4-14.4,48.8,14.4,24.41,14.4,48.81-14.4,24.4-14.4,48.8,14.4,24.41,14.4,48.81-14.4,24.4-14.4,48.81,14.4,24.4,14.4,48.81-14.4,24.4-14.4,48.8,14.4,24.41,14.4,48.81-14.4,24.4-14.4,48.81,14.4,24.4,14.4,48.81-14.4,24.4-14.4,48.81,14.4,24.4,14.4,48.81-14.4,24.41-14.4,48.81,14.4,24.41,14.4,48.81-14.4,24.41-14.4,48.81,14.4,24.41,14.4,48.81S712.8,903,712.8,927.36s14.4,24.41,14.4,48.82-14.4,24.41-14.4,48.82"/></svg>